<?xml version="1.0" encoding="UTF-8"?>
<!DOCTYPE svg PUBLIC "-//W3C//DTD SVG 1.1//EN" "http://www.w3.org/Graphics/SVG/1.1/DTD/svg11.dtd">
<svg xmlns="http://www.w3.org/2000/svg" version="1.1" width="512px" height="512px" style="shape-rendering:geometricPrecision; text-rendering:geometricPrecision; image-rendering:optimizeQuality; fill-rule:evenodd; clip-rule:evenodd" xmlns:xlink="http://www.w3.org/1999/xlink">
<g><path style="opacity:0.994" fill="#b0c4de" d="M 121.5,-0.5 C 210.833,-0.5 300.167,-0.5 389.5,-0.5C 393.876,1.13758 398.542,1.97091 403.5,2C 406.611,4.69506 410.277,6.02839 414.5,6C 415.551,7.38476 416.884,8.38476 418.5,9C 422.805,10.6109 427.138,12.2776 431.5,14C 437.586,18.4243 443.919,22.4243 450.5,26C 460.015,33.4022 468.848,41.5689 477,50.5C 479.333,53.1667 481.667,55.8333 484,58.5C 485.881,62.2619 487.714,65.9286 489.5,69.5C 490.675,69.281 491.675,69.6143 492.5,70.5C 493.167,72.5 493.833,74.5 494.5,76.5C 495.325,77.3857 496.325,77.719 497.5,77.5C 497.338,79.5273 497.505,81.5273 498,83.5C 498.71,84.9733 499.876,85.6399 501.5,85.5C 501.337,87.8568 501.503,90.1902 502,92.5C 503,93.1667 504,93.8333 505,94.5C 505.42,98.1914 505.92,101.858 506.5,105.5C 507.5,105.5 508.5,105.5 509.5,105.5C 509.334,109.514 509.501,113.514 510,117.5C 510.278,118.416 510.778,119.082 511.5,119.5C 511.5,210.167 511.5,300.833 511.5,391.5C 510.778,391.918 510.278,392.584 510,393.5C 509.501,397.486 509.334,401.486 509.5,405.5C 508.5,405.5 507.5,405.5 506.5,405.5C 505.92,409.142 505.42,412.809 505,416.5C 501.955,418.675 500.789,421.675 501.5,425.5C 500.325,425.281 499.325,425.614 498.5,426.5C 497.626,428.747 497.292,431.08 497.5,433.5C 496.325,433.281 495.325,433.614 494.5,434.5C 493.833,436.5 493.167,438.5 492.5,440.5C 491.675,441.386 490.675,441.719 489.5,441.5C 487.714,445.071 485.881,448.738 484,452.5C 478.264,458.613 472.431,464.613 466.5,470.5C 465.614,471.325 465.281,472.325 465.5,473.5C 460.158,476.649 455.158,480.482 450.5,485C 443.898,488.607 437.565,492.607 431.5,497C 427.138,498.722 422.805,500.389 418.5,502C 414.686,504.817 410.353,506.483 405.5,507C 404.833,507.667 404.167,508.333 403.5,509C 398.542,509.029 393.876,509.862 389.5,511.5C 300.167,511.5 210.833,511.5 121.5,511.5C 117.124,509.862 112.458,509.029 107.5,509C 106.833,508.333 106.167,507.667 105.5,507C 99.1264,505.92 93.1264,503.92 87.5,501C 76.1452,494.827 65.1452,487.994 54.5,480.5C 52.2588,478.548 50.2588,476.382 48.5,474C 47.552,473.517 46.552,473.351 45.5,473.5C 45.719,472.325 45.3857,471.325 44.5,470.5C 38.5692,464.613 32.7359,458.613 27,452.5C 25.1191,448.738 23.2857,445.071 21.5,441.5C 20.325,441.719 19.325,441.386 18.5,440.5C 17.8333,438.5 17.1667,436.5 16.5,434.5C 15.675,433.614 14.675,433.281 13.5,433.5C 13.6621,431.473 13.4955,429.473 13,427.5C 12.2904,426.027 11.1238,425.36 9.5,425.5C 10.2113,421.675 9.04463,418.675 6,416.5C 5.5804,412.809 5.0804,409.142 4.5,405.5C 3.5,405.5 2.5,405.5 1.5,405.5C 1.66551,401.486 1.49885,397.486 1,393.5C 0.721579,392.584 0.221579,391.918 -0.5,391.5C -0.5,300.833 -0.5,210.167 -0.5,119.5C 0.221579,119.082 0.721579,118.416 1,117.5C 1.49885,113.514 1.66551,109.514 1.5,105.5C 2.5,105.5 3.5,105.5 4.5,105.5C 5.0804,101.858 5.5804,98.1914 6,94.5C 7,93.8333 8,93.1667 9,92.5C 9.49665,90.1902 9.66331,87.8568 9.5,85.5C 10.675,85.719 11.675,85.3857 12.5,84.5C 13.3742,82.2534 13.7076,79.9201 13.5,77.5C 14.675,77.719 15.675,77.3857 16.5,76.5C 17.1667,74.5 17.8333,72.5 18.5,70.5C 19.325,69.6143 20.325,69.281 21.5,69.5C 23.2857,65.9286 25.1191,62.2619 27,58.5C 37.2179,46.659 48.3846,35.8257 60.5,26C 67.1016,22.3932 73.4349,18.3932 79.5,14C 83.8622,12.2776 88.1955,10.6109 92.5,9C 96.3139,6.18348 100.647,4.51681 105.5,4C 106.167,3.33333 106.833,2.66667 107.5,2C 112.458,1.97091 117.124,1.13758 121.5,-0.5 Z"/></g>
<g><path style="opacity:1" fill="#6f24eb" d="M 272.5,7.5 C 292.169,7.33338 311.836,7.50005 331.5,8C 335.356,8.1773 339.023,8.6773 342.5,9.5C 319.164,9.33337 295.831,9.50003 272.5,10C 271.5,11 270.5,12 269.5,13C 264.167,13.3333 258.833,13.6667 253.5,14C 252.833,14.6667 252.167,15.3333 251.5,16C 246.238,15.6413 241.571,16.9747 237.5,20C 234.883,20.8215 232.216,21.3215 229.5,21.5C 229.833,20.8333 230.167,20.1667 230.5,19.5C 236.464,17.6698 242.464,16.1698 248.5,15C 249.5,14 250.5,13 251.5,12C 255.5,11.6667 259.5,11.3333 263.5,11C 266.562,9.79509 269.562,8.62842 272.5,7.5 Z"/></g>
<g><path style="opacity:1" fill="#6203ed" d="M 342.5,9.5 C 343.167,9.5 343.833,9.5 344.5,9.5C 349.033,10.9836 353.7,11.6503 358.5,11.5C 359.343,13.1733 360.676,14.34 362.5,15C 365.544,15.3629 368.544,15.8629 371.5,16.5C 373.631,18.6848 376.297,20.0181 379.5,20.5C 380.313,21.8139 381.313,22.9805 382.5,24C 389.348,26.2043 396.015,28.7043 402.5,31.5C 404.564,31.7619 405.897,32.9286 406.5,35C 410.221,35.8425 413.554,37.3425 416.5,39.5C 427.7,48.0112 438.7,57.0112 449.5,66.5C 449.328,67.4916 449.662,68.1583 450.5,68.5C 452.766,72.4356 455.766,75.7689 459.5,78.5C 459.343,79.8734 459.51,81.2068 460,82.5C 462.588,85.1999 465.421,87.5332 468.5,89.5C 473.314,95.8518 477.147,102.852 480,110.5C 481.039,111.71 482.206,112.71 483.5,113.5C 484.11,114.391 484.443,115.391 484.5,116.5C 488.1,125.131 491.767,133.798 495.5,142.5C 494.955,145.998 495.788,148.998 498,151.5C 498.333,156.167 498.667,160.833 499,165.5C 499.759,167.063 500.926,168.063 502.5,168.5C 503.096,186.161 503.429,203.827 503.5,221.5C 503.83,228.532 503.497,235.532 502.5,242.5C 501.667,243.5 500.833,244.5 500,245.5C 499.501,249.152 499.335,252.818 499.5,256.5C 496.835,263.456 494.168,270.456 491.5,277.5C 486.645,282.881 483.645,289.214 482.5,296.5C 482.5,296.833 482.5,297.167 482.5,297.5C 481.504,297.414 480.671,297.748 480,298.5C 477.251,304.271 474.418,309.937 471.5,315.5C 468.711,317.352 466.711,319.852 465.5,323C 464.207,323.49 462.873,323.657 461.5,323.5C 461.666,313.494 461.5,303.494 461,293.5C 460.5,293 460,292.5 459.5,292C 455.167,291.333 450.833,291.333 446.5,292C 446,292.5 445.5,293 445,293.5C 444.5,311.164 444.333,328.83 444.5,346.5C 441.152,350.847 437.152,354.514 432.5,357.5C 427.095,361.921 421.762,366.254 416.5,370.5C 413.485,374.514 409.485,376.847 404.5,377.5C 404.741,375.102 404.074,373.102 402.5,371.5C 399.428,353.14 396.095,334.806 392.5,316.5C 397.856,310.31 403.69,304.643 410,299.5C 416.361,292.051 422.194,284.384 427.5,276.5C 428.088,273.912 429.754,272.245 432.5,271.5C 433.474,269.257 433.808,266.924 433.5,264.5C 434.822,264.67 435.989,264.337 437,263.5C 439.546,257.554 441.046,251.221 441.5,244.5C 442.748,243.96 443.915,243.293 445,242.5C 445.333,236.5 445.667,230.5 446,224.5C 447.039,223.756 447.539,222.756 447.5,221.5C 447.667,209.829 447.5,198.162 447,186.5C 446.333,185.167 445.667,183.833 445,182.5C 444.667,177.833 444.333,173.167 444,168.5C 442.615,167.449 441.615,166.116 441,164.5C 440.667,161.5 440.333,158.5 440,155.5C 436.927,150.941 434.593,145.941 433,140.5C 429.247,137.11 425.747,133.443 422.5,129.5C 421.918,125.887 420.085,122.887 417,120.5C 416.688,117.691 415.188,116.024 412.5,115.5C 409.604,111.095 406.104,107.095 402,103.5C 401.55,101.481 400.717,99.6477 399.5,98C 396.193,97.3472 393.527,95.6805 391.5,93C 390.207,92.51 388.873,92.3433 387.5,92.5C 381.283,86.0473 373.95,81.3806 365.5,78.5C 363.854,75.4305 361.187,73.9305 357.5,74C 356.257,72.8455 355.257,71.5122 354.5,70C 351.167,69.6667 347.833,69.3333 344.5,69C 343.833,68.3333 343.167,67.6667 342.5,67C 335.476,66.6752 328.476,66.1752 321.5,65.5C 316.376,64.1714 310.876,63.5048 305,63.5C 299.5,63.6667 294,63.8333 288.5,64C 287.619,64.7083 286.953,65.5416 286.5,66.5C 281.349,67.3267 276.016,67.8267 270.5,68C 267.116,70.9372 263.116,72.2705 258.5,72C 256.035,74.5308 253.035,76.0308 249.5,76.5C 247.502,79.0139 244.835,80.3472 241.5,80.5C 234.833,83.0011 228.499,86.1678 222.5,90C 221.177,90.8159 220.511,91.9826 220.5,93.5C 217.732,95.0872 215.065,96.9205 212.5,99C 205.628,107.037 198.295,114.537 190.5,121.5C 187.257,128.319 183.757,134.986 180,141.5C 179.51,142.793 179.343,144.127 179.5,145.5C 178.571,146.936 177.405,148.269 176,149.5C 175.66,153.818 174.493,157.818 172.5,161.5C 171.833,163.167 171.167,164.833 170.5,166.5C 169.292,167.234 167.959,167.567 166.5,167.5C 166.666,173.842 166.5,180.175 166,186.5C 164.415,187.376 163.415,188.709 163,190.5C 162.333,200.5 162.333,210.5 163,220.5C 163.977,222.706 165.143,224.706 166.5,226.5C 166.671,231.196 167.171,235.863 168,240.5C 168.383,241.056 168.883,241.389 169.5,241.5C 170.224,245.504 171.057,249.504 172,253.5C 174.291,256.025 175.624,259.025 176,262.5C 180.368,267.03 183.201,272.364 184.5,278.5C 195.497,295.163 209.164,309.163 225.5,320.5C 226.458,321.962 227.624,323.295 229,324.5C 229.5,345.497 229.667,366.497 229.5,387.5C 227.167,387.5 224.833,387.5 222.5,387.5C 219.926,385.976 217.259,384.642 214.5,383.5C 212.535,380.988 209.868,379.655 206.5,379.5C 202.562,376.767 198.896,373.601 195.5,370C 193.655,368.872 191.655,368.372 189.5,368.5C 188.375,366.871 187.041,365.371 185.5,364C 182.596,363.867 180.262,362.7 178.5,360.5C 166.541,358.683 154.207,357.849 141.5,358C 140.565,355.619 140.232,353.119 140.5,350.5C 150.757,349.691 161.09,349.191 171.5,349C 179.625,343.64 182.458,336.14 180,326.5C 178.352,325.283 176.519,324.45 174.5,324C 176.378,322.457 177.878,320.624 179,318.5C 179.667,309.5 179.667,300.5 179,291.5C 161.907,290.674 144.74,290.174 127.5,290C 125.071,286.959 124.071,283.459 124.5,279.5C 123.178,279.67 122.011,279.337 121,278.5C 121.316,274.863 119.982,272.196 117,270.5C 114.863,261.491 113.53,252.158 113,242.5C 112.333,240.5 111,239.167 109,238.5C 108.333,216.5 108.333,194.5 109,172.5C 111.926,166.173 113.093,159.506 112.5,152.5C 113.6,151.395 114.267,150.062 114.5,148.5C 116.22,146.342 117.053,143.675 117,140.5C 123.058,129.717 128.558,118.717 133.5,107.5C 134.32,105.188 135.153,102.854 136,100.5C 138.778,96.6544 141.278,92.6544 143.5,88.5C 144.974,87.5637 145.974,86.2303 146.5,84.5C 153.646,78.5171 159.979,71.6837 165.5,64C 175.139,55.1746 185.139,47.0079 195.5,39.5C 206.608,33.0553 217.941,27.0553 229.5,21.5C 232.216,21.3215 234.883,20.8215 237.5,20C 241.571,16.9747 246.238,15.6413 251.5,16C 252.167,15.3333 252.833,14.6667 253.5,14C 258.833,13.6667 264.167,13.3333 269.5,13C 270.5,12 271.5,11 272.5,10C 295.831,9.50003 319.164,9.33337 342.5,9.5 Z"/></g>
<g><path style="opacity:1" fill="#a6aadf" d="M 346.5,6.5 C 352.787,8.0934 359.12,9.5934 365.5,11C 367.7,13.0461 370.367,14.0461 373.5,14C 374.381,14.7083 375.047,15.5416 375.5,16.5C 374.167,16.5 372.833,16.5 371.5,16.5C 371.389,15.8826 371.056,15.3826 370.5,15C 366.174,14.722 362.174,13.5554 358.5,11.5C 354.5,9.83333 350.5,8.16667 346.5,6.5 Z"/></g>
<g><path style="opacity:1" fill="#9887e2" d="M 346.5,6.5 C 350.5,8.16667 354.5,9.83333 358.5,11.5C 353.7,11.6503 349.033,10.9836 344.5,9.5C 344.423,8.25025 343.756,7.41691 342.5,7C 318.989,4.91533 295.656,5.082 272.5,7.5C 269.562,8.62842 266.562,9.79509 263.5,11C 259.5,11.3333 255.5,11.6667 251.5,12C 250.5,13 249.5,14 248.5,15C 242.464,16.1698 236.464,17.6698 230.5,19.5C 223.147,23.2011 215.814,26.8678 208.5,30.5C 210.564,27.2941 213.564,25.4608 217.5,25C 220.167,23 222.833,21 225.5,19C 235.86,15.5598 246.193,12.2264 256.5,9C 286.326,2.69685 316.326,1.86352 346.5,6.5 Z"/></g>
<g><path style="opacity:1" fill="#814ee7" d="M 344.5,9.5 C 343.833,9.5 343.167,9.5 342.5,9.5C 339.023,8.6773 335.356,8.1773 331.5,8C 311.836,7.50005 292.169,7.33338 272.5,7.5C 295.656,5.082 318.989,4.91533 342.5,7C 343.756,7.41691 344.423,8.25025 344.5,9.5 Z"/></g>
<g><path style="opacity:1" fill="#8b68e5" d="M 358.5,11.5 C 362.174,13.5554 366.174,14.722 370.5,15C 371.056,15.3826 371.389,15.8826 371.5,16.5C 368.544,15.8629 365.544,15.3629 362.5,15C 360.676,14.34 359.343,13.1733 358.5,11.5 Z"/></g>
<g><path style="opacity:1" fill="#9f9be1" d="M 375.5,16.5 C 377.927,16.523 380.26,17.023 382.5,18C 387.952,21.082 393.285,24.2486 398.5,27.5C 390.255,24.7671 382.588,21.1005 375.5,16.5 Z"/></g>
<g><path style="opacity:1" fill="#8456e6" d="M 371.5,16.5 C 372.833,16.5 374.167,16.5 375.5,16.5C 382.588,21.1005 390.255,24.7671 398.5,27.5C 399.833,28.8333 401.167,30.1667 402.5,31.5C 396.015,28.7043 389.348,26.2043 382.5,24C 381.313,22.9805 380.313,21.8139 379.5,20.5C 376.297,20.0181 373.631,18.6848 371.5,16.5 Z"/></g>
<g><path style="opacity:1" fill="#885fe6" d="M 230.5,19.5 C 230.167,20.1667 229.833,20.8333 229.5,21.5C 217.941,27.0553 206.608,33.0553 195.5,39.5C 196.167,38.5 196.833,37.5 197.5,36.5C 200.993,34.119 204.659,32.119 208.5,30.5C 215.814,26.8678 223.147,23.2011 230.5,19.5 Z"/></g>
<g><path style="opacity:1" fill="#9683e3" d="M 398.5,27.5 C 399.873,27.3433 401.207,27.51 402.5,28C 407.286,31.8107 411.953,35.6441 416.5,39.5C 413.554,37.3425 410.221,35.8425 406.5,35C 405.897,32.9286 404.564,31.7619 402.5,31.5C 401.167,30.1667 399.833,28.8333 398.5,27.5 Z"/></g>
<g><path style="opacity:1" fill="#937ae3" d="M 416.5,39.5 C 418.5,40.1667 420.5,40.8333 422.5,41.5C 429.881,47.3734 436.881,53.8734 443.5,61C 446.647,61.6488 448.647,63.4821 449.5,66.5C 438.7,57.0112 427.7,48.0112 416.5,39.5 Z"/></g>
<g><path style="opacity:1" fill="#a3a3e0" d="M 422.5,41.5 C 430.796,46.2772 438.13,52.4438 444.5,60C 445.5,60.3333 446.5,60.6667 447.5,61C 451.357,66.3469 455.357,71.5136 459.5,76.5C 456.5,73.8333 453.5,71.1667 450.5,68.5C 449.662,68.1583 449.328,67.4916 449.5,66.5C 448.647,63.4821 446.647,61.6488 443.5,61C 436.881,53.8734 429.881,47.3734 422.5,41.5 Z"/></g>
<g><path style="opacity:1" fill="#a09ce0" d="M 197.5,36.5 C 196.833,37.5 196.167,38.5 195.5,39.5C 193.307,40.6805 190.974,41.6805 188.5,42.5C 178.05,51.0487 168.05,60.0487 158.5,69.5C 159.072,67.7446 159.906,66.0779 161,64.5C 170.361,56.1604 179.861,47.9937 189.5,40C 192.336,39.0789 195.002,37.9123 197.5,36.5 Z"/></g>
<g><path style="opacity:1" fill="#8964e5" d="M 195.5,39.5 C 185.139,47.0079 175.139,55.1746 165.5,64C 159.979,71.6837 153.646,78.5171 146.5,84.5C 150.464,79.5055 154.464,74.5055 158.5,69.5C 168.05,60.0487 178.05,51.0487 188.5,42.5C 190.974,41.6805 193.307,40.6805 195.5,39.5 Z"/></g>
<g><path style="opacity:1" fill="#7f4be7" d="M 321.5,65.5 C 309.765,63.9904 298.098,64.3237 286.5,66.5C 286.953,65.5416 287.619,64.7083 288.5,64C 294,63.8333 299.5,63.6667 305,63.5C 310.876,63.5048 316.376,64.1714 321.5,65.5 Z"/></g>
<g><path style="opacity:1" fill="#998ae2" d="M 321.5,65.5 C 321.918,66.2216 322.584,66.7216 323.5,67C 329.5,67.3333 335.5,67.6667 341.5,68C 342.167,69.3333 343.167,70.3333 344.5,71C 347.5,71.3333 350.5,71.6667 353.5,72C 354.743,73.1545 355.743,74.4878 356.5,76C 359.753,76.2009 362.753,77.0343 365.5,78.5C 373.95,81.3806 381.283,86.0473 387.5,92.5C 396.107,99.7702 404.441,107.437 412.5,115.5C 415.188,116.024 416.688,117.691 417,120.5C 420.085,122.887 421.918,125.887 422.5,129.5C 411.196,115.864 398.529,103.53 384.5,92.5C 380.944,90.9529 377.944,88.7862 375.5,86C 372.328,85.6805 369.995,84.1805 368.5,81.5C 356.565,78.0222 344.898,73.8555 333.5,69C 323.995,68.2268 314.495,67.3935 305,66.5C 294.02,67.3145 283.187,68.4812 272.5,70C 262.231,73.397 252.231,77.397 242.5,82C 233.463,88.6915 224.13,95.0249 214.5,101C 210.667,106.167 206.167,110.667 201,114.5C 199.114,118.958 196.281,122.625 192.5,125.5C 195.228,121.724 197.728,117.724 200,113.5C 207.338,107.329 214.171,100.662 220.5,93.5C 226.527,89.4857 232.86,85.9857 239.5,83C 240.381,82.2917 241.047,81.4584 241.5,80.5C 244.835,80.3472 247.502,79.0139 249.5,76.5C 253.035,76.0308 256.035,74.5308 258.5,72C 263.116,72.2705 267.116,70.9372 270.5,68C 276.016,67.8267 281.349,67.3267 286.5,66.5C 298.098,64.3237 309.765,63.9904 321.5,65.5 Z"/></g>
<g><path style="opacity:1" fill="#7636e9" d="M 321.5,65.5 C 328.476,66.1752 335.476,66.6752 342.5,67C 343.167,67.6667 343.833,68.3333 344.5,69C 347.833,69.3333 351.167,69.6667 354.5,70C 355.257,71.5122 356.257,72.8455 357.5,74C 361.187,73.9305 363.854,75.4305 365.5,78.5C 362.753,77.0343 359.753,76.2009 356.5,76C 355.743,74.4878 354.743,73.1545 353.5,72C 350.5,71.6667 347.5,71.3333 344.5,71C 343.167,70.3333 342.167,69.3333 341.5,68C 335.5,67.6667 329.5,67.3333 323.5,67C 322.584,66.7216 321.918,66.2216 321.5,65.5 Z"/></g>
<g><path style="opacity:1" fill="#8c6be5" d="M 450.5,68.5 C 453.5,71.1667 456.5,73.8333 459.5,76.5C 459.5,77.1667 459.5,77.8333 459.5,78.5C 455.766,75.7689 452.766,72.4356 450.5,68.5 Z"/></g>
<g><path style="opacity:1" fill="#b0c4dd" d="M 422.5,129.5 C 425.167,133.833 427.833,138.167 430.5,142.5C 435.518,154.712 439.351,167.379 442,180.5C 442.552,190.497 443.052,200.497 443.5,210.5C 442.291,219.768 441.291,229.101 440.5,238.5C 437.792,245.369 435.459,252.369 433.5,259.5C 430.785,261.764 429.285,264.764 429,268.5C 426.348,269.59 424.848,271.59 424.5,274.5C 423.675,275.386 422.675,275.719 421.5,275.5C 421.66,277.199 421.494,278.866 421,280.5C 416.674,285.55 412.841,290.883 409.5,296.5C 404.248,302.419 398.581,308.085 392.5,313.5C 391.833,313.5 391.167,313.5 390.5,313.5C 390.056,307.168 389.556,300.835 389,294.5C 388.626,293.584 388.126,292.75 387.5,292C 380.943,290.414 374.276,290.08 367.5,291C 364.695,302.558 361.529,314.058 358,325.5C 357.278,328.261 357.445,330.927 358.5,333.5C 354.64,333.054 351.64,334.387 349.5,337.5C 349.167,337.5 348.833,337.5 348.5,337.5C 341.838,338.599 335.171,339.765 328.5,341C 312.833,341.667 297.167,341.667 281.5,341C 276.029,339.139 270.362,337.806 264.5,337C 262.714,336.804 261.381,335.971 260.5,334.5C 257.914,333.52 255.247,333.187 252.5,333.5C 250.611,332.258 248.611,332.258 246.5,333.5C 247.457,322.217 247.79,310.884 247.5,299.5C 241.907,299.193 236.407,299.527 231,300.5C 230.828,307.346 230.328,314.013 229.5,320.5C 224.528,316.534 219.528,312.534 214.5,308.5C 203.742,299.575 194.575,289.242 187,277.5C 182.837,269.286 178.504,261.286 174,253.5C 172.921,250.937 172.421,248.271 172.5,245.5C 168.22,222.647 167.386,199.647 170,176.5C 172.346,168.091 175.013,159.758 178,151.5C 179.966,147.603 182.3,143.937 185,140.5C 185.809,136.533 187.309,132.866 189.5,129.5C 190.5,128.167 191.5,126.833 192.5,125.5C 196.281,122.625 199.114,118.958 201,114.5C 206.167,110.667 210.667,106.167 214.5,101C 224.13,95.0249 233.463,88.6915 242.5,82C 252.231,77.397 262.231,73.397 272.5,70C 283.187,68.4812 294.02,67.3145 305,66.5C 314.495,67.3935 323.995,68.2268 333.5,69C 344.898,73.8555 356.565,78.0222 368.5,81.5C 369.995,84.1805 372.328,85.6805 375.5,86C 377.944,88.7862 380.944,90.9529 384.5,92.5C 398.529,103.53 411.196,115.864 422.5,129.5 Z"/></g>
<g><path style="opacity:1" fill="#9e98e1" d="M 158.5,69.5 C 154.464,74.5055 150.464,79.5055 146.5,84.5C 145.974,86.2303 144.974,87.5637 143.5,88.5C 142.833,88.8333 142.167,89.1667 141.5,89.5C 144.123,84.7081 147.123,80.0414 150.5,75.5C 153.511,73.8044 156.177,71.8044 158.5,69.5 Z"/></g>
<g><path style="opacity:1" fill="#8558e6" d="M 459.5,78.5 C 463.215,81.6067 466.215,85.2733 468.5,89.5C 465.421,87.5332 462.588,85.1999 460,82.5C 459.51,81.2068 459.343,79.8734 459.5,78.5 Z"/></g>
<g><path style="opacity:1" fill="#7c44e8" d="M 241.5,80.5 C 241.047,81.4584 240.381,82.2917 239.5,83C 232.86,85.9857 226.527,89.4857 220.5,93.5C 220.511,91.9826 221.177,90.8159 222.5,90C 228.499,86.1678 234.833,83.0011 241.5,80.5 Z"/></g>
<g><path style="opacity:1" fill="#9279e3" d="M 468.5,89.5 C 475.011,96.5155 480.011,104.515 483.5,113.5C 482.206,112.71 481.039,111.71 480,110.5C 477.147,102.852 473.314,95.8518 468.5,89.5 Z"/></g>
<g><path style="opacity:1" fill="#8253e7" d="M 387.5,92.5 C 388.873,92.3433 390.207,92.51 391.5,93C 393.527,95.6805 396.193,97.3472 399.5,98C 400.717,99.6477 401.55,101.481 402,103.5C 406.104,107.095 409.604,111.095 412.5,115.5C 404.441,107.437 396.107,99.7702 387.5,92.5 Z"/></g>
<g><path style="opacity:1" fill="#9177e4" d="M 143.5,88.5 C 141.278,92.6544 138.778,96.6544 136,100.5C 135.153,102.854 134.32,105.188 133.5,107.5C 129.691,112.433 126.358,117.766 123.5,123.5C 121.359,128.104 119.526,132.771 118,137.5C 117.292,138.381 116.458,139.047 115.5,139.5C 116.447,132.312 119.114,125.979 123.5,120.5C 128.754,109.648 134.754,99.3144 141.5,89.5C 142.167,89.1667 142.833,88.8333 143.5,88.5 Z"/></g>
<g><path style="opacity:1" fill="#7738e9" d="M 133.5,107.5 C 128.558,118.717 123.058,129.717 117,140.5C 117.053,143.675 116.22,146.342 114.5,148.5C 114.704,145.482 115.037,142.482 115.5,139.5C 116.458,139.047 117.292,138.381 118,137.5C 119.526,132.771 121.359,128.104 123.5,123.5C 126.358,117.766 129.691,112.433 133.5,107.5 Z"/></g>
<g><path style="opacity:1" fill="#8d6be5" d="M 484.5,116.5 C 485.794,117.29 486.961,118.29 488,119.5C 490.135,127.775 493.301,135.442 497.5,142.5C 497.584,145.327 498.25,147.994 499.5,150.5C 498.542,150.047 497.708,149.381 497,148.5C 496.809,146.292 496.309,144.292 495.5,142.5C 491.767,133.798 488.1,125.131 484.5,116.5 Z"/></g>
<g><path style="opacity:1" fill="#8457e6" d="M 220.5,93.5 C 214.171,100.662 207.338,107.329 200,113.5C 197.728,117.724 195.228,121.724 192.5,125.5C 191.5,126.833 190.5,128.167 189.5,129.5C 188.017,131.094 186.517,132.76 185,134.5C 184.144,138.8 182.311,142.467 179.5,145.5C 179.343,144.127 179.51,142.793 180,141.5C 183.757,134.986 187.257,128.319 190.5,121.5C 198.295,114.537 205.628,107.037 212.5,99C 215.065,96.9205 217.732,95.0872 220.5,93.5 Z"/></g>
<g><path style="opacity:1" fill="#804ce7" d="M 495.5,142.5 C 496.309,144.292 496.809,146.292 497,148.5C 497.708,149.381 498.542,150.047 499.5,150.5C 500.653,156.354 501.653,162.354 502.5,168.5C 500.926,168.063 499.759,167.063 499,165.5C 498.667,160.833 498.333,156.167 498,151.5C 495.788,148.998 494.955,145.998 495.5,142.5 Z"/></g>
<g><path style="opacity:1" fill="#9784e3" d="M 115.5,139.5 C 115.037,142.482 114.704,145.482 114.5,148.5C 114.267,150.062 113.6,151.395 112.5,152.5C 111.328,159.855 109.495,167.188 107,174.5C 106.827,180.016 106.327,185.349 105.5,190.5C 104.497,177.501 105.997,164.834 110,152.5C 112.367,148.22 114.2,143.886 115.5,139.5 Z"/></g>
<g><path style="opacity:1" fill="#c58d9f" d="M 303.5,163.5 C 305.28,164.99 305.946,166.99 305.5,169.5C 309.503,169.49 312.503,171.157 314.5,174.5C 312.938,174.267 311.605,173.6 310.5,172.5C 308.735,171.539 306.735,171.205 304.5,171.5C 303.735,168.904 303.401,166.237 303.5,163.5 Z"/></g>
<g><path style="opacity:1" fill="#e24248" d="M 304.5,171.5 C 306.735,171.205 308.735,171.539 310.5,172.5C 310.414,173.496 310.748,174.329 311.5,175C 307.931,175.146 304.598,175.98 301.5,177.5C 299.336,175.316 296.669,173.983 293.5,173.5C 297.033,172.802 299.533,170.802 301,167.5C 301.949,169.093 303.115,170.426 304.5,171.5 Z"/></g>
<g><path style="opacity:1" fill="#bda1b6" d="M 303.5,163.5 C 299.642,163.86 297.642,166.027 297.5,170C 293.231,172.471 288.898,174.637 284.5,176.5C 282.284,177.203 280.451,178.536 279,180.5C 276.966,184.589 275.299,188.922 274,193.5C 272.266,194.249 270.433,194.749 268.5,195C 267.62,196.356 267.286,197.856 267.5,199.5C 265.499,194.81 267.165,192.476 272.5,192.5C 271.971,189.396 272.971,187.063 275.5,185.5C 276.167,183.167 276.833,180.833 277.5,178.5C 279.754,177.876 281.421,176.543 282.5,174.5C 284.743,173.526 287.076,173.192 289.5,173.5C 290.09,169.684 292.423,168.017 296.5,168.5C 296.206,162.062 298.54,160.396 303.5,163.5 Z"/></g>
<g><path style="opacity:1" fill="#8252e7" d="M 422.5,129.5 C 425.747,133.443 429.247,137.11 433,140.5C 434.593,145.941 436.927,150.941 440,155.5C 440.333,158.5 440.667,161.5 441,164.5C 441.615,166.116 442.615,167.449 444,168.5C 444.333,173.167 444.667,177.833 445,182.5C 445.667,183.833 446.333,185.167 447,186.5C 447.5,198.162 447.667,209.829 447.5,221.5C 446.167,222.5 444.833,223.5 443.5,224.5C 445.275,211.908 445.775,199.241 445,186.5C 443.137,176.714 440.803,167.047 438,157.5C 436.389,152.009 433.889,147.009 430.5,142.5C 427.833,138.167 425.167,133.833 422.5,129.5 Z"/></g>
<g><path style="opacity:1" fill="#9a8ee2" d="M 497.5,142.5 C 499.234,144.09 500.4,146.09 501,148.5C 505.54,168.564 507.707,188.897 507.5,209.5C 507.497,216.867 506.83,223.867 505.5,230.5C 505.829,216.656 505.496,202.99 504.5,189.5C 504.422,182.3 503.755,175.3 502.5,168.5C 501.653,162.354 500.653,156.354 499.5,150.5C 498.25,147.994 497.584,145.327 497.5,142.5 Z"/></g>
<g><path style="opacity:1" fill="#7a3fe8" d="M 502.5,168.5 C 503.755,175.3 504.422,182.3 504.5,189.5C 504.828,200.346 504.494,211.013 503.5,221.5C 503.429,203.827 503.096,186.161 502.5,168.5 Z"/></g>
<g><path style="opacity:1" fill="#8861e5" d="M 504.5,189.5 C 505.496,202.99 505.829,216.656 505.5,230.5C 504.564,234.735 504.231,239.069 504.5,243.5C 503.542,243.953 502.708,244.619 502,245.5C 501.581,249.392 500.748,253.058 499.5,256.5C 499.335,252.818 499.501,249.152 500,245.5C 500.833,244.5 501.667,243.5 502.5,242.5C 503.497,235.532 503.83,228.532 503.5,221.5C 504.494,211.013 504.828,200.346 504.5,189.5 Z"/></g>
<g><path style="opacity:1" fill="#732cea" d="M 170.5,166.5 C 168.015,173.223 166.848,180.223 167,187.5C 166.751,188.624 166.251,189.624 165.5,190.5C 164.334,200.817 164.168,211.151 165,221.5C 165.383,222.056 165.883,222.389 166.5,222.5C 166.5,223.833 166.5,225.167 166.5,226.5C 165.143,224.706 163.977,222.706 163,220.5C 162.333,210.5 162.333,200.5 163,190.5C 163.415,188.709 164.415,187.376 166,186.5C 166.5,180.175 166.666,173.842 166.5,167.5C 167.959,167.567 169.292,167.234 170.5,166.5 Z"/></g>
<g><path style="opacity:1" fill="#8d6de4" d="M 172.5,161.5 C 172.662,166.182 171.495,170.515 169,174.5C 166.868,190.4 166.035,206.4 166.5,222.5C 165.883,222.389 165.383,222.056 165,221.5C 164.168,211.151 164.334,200.817 165.5,190.5C 166.251,189.624 166.751,188.624 167,187.5C 166.848,180.223 168.015,173.223 170.5,166.5C 171.167,164.833 171.833,163.167 172.5,161.5 Z"/></g>
<g><path style="opacity:1" fill="#9e96e1" d="M 189.5,129.5 C 187.309,132.866 185.809,136.533 185,140.5C 182.3,143.937 179.966,147.603 178,151.5C 175.013,159.758 172.346,168.091 170,176.5C 167.386,199.647 168.22,222.647 172.5,245.5C 171.857,243.924 170.857,242.59 169.5,241.5C 169.248,234.794 168.248,228.461 166.5,222.5C 166.035,206.4 166.868,190.4 169,174.5C 171.495,170.515 172.662,166.182 172.5,161.5C 174.493,157.818 175.66,153.818 176,149.5C 177.405,148.269 178.571,146.936 179.5,145.5C 182.311,142.467 184.144,138.8 185,134.5C 186.517,132.76 188.017,131.094 189.5,129.5 Z"/></g>
<g><path style="opacity:1" fill="#d75d68" d="M 303.5,163.5 C 303.401,166.237 303.735,168.904 304.5,171.5C 303.115,170.426 301.949,169.093 301,167.5C 299.533,170.802 297.033,172.802 293.5,173.5C 296.669,173.983 299.336,175.316 301.5,177.5C 304.598,175.98 307.931,175.146 311.5,175C 310.748,174.329 310.414,173.496 310.5,172.5C 311.605,173.6 312.938,174.267 314.5,174.5C 320.532,175.865 324.198,179.532 325.5,185.5C 327.7,187.262 328.867,189.596 329,192.5C 331.209,192.989 333.042,193.989 334.5,195.5C 330.315,195.984 327.315,194.317 325.5,190.5C 324.755,192.747 323.422,194.58 321.5,196C 314.788,197.009 308.288,196.509 302,194.5C 296.276,195.931 290.442,196.931 284.5,197.5C 288.459,198.327 292.459,198.827 296.5,199C 297.056,199.383 297.389,199.883 297.5,200.5C 292.489,200.334 287.489,200.501 282.5,201C 281.426,201.739 280.759,202.739 280.5,204C 281.632,205.765 282.632,207.598 283.5,209.5C 287.602,211.266 290.269,214.266 291.5,218.5C 293.792,218.756 295.959,218.423 298,217.5C 298.499,212.511 298.666,207.511 298.5,202.5C 299.651,207.65 299.817,212.984 299,218.5C 296.869,219.615 295.035,220.948 293.5,222.5C 292.041,222.567 290.708,222.234 289.5,221.5C 285.523,221.067 282.357,219.067 280,215.5C 278.037,210.714 275.87,206.047 273.5,201.5C 271.589,200.523 269.589,199.857 267.5,199.5C 267.286,197.856 267.62,196.356 268.5,195C 270.433,194.749 272.266,194.249 274,193.5C 275.299,188.922 276.966,184.589 279,180.5C 280.451,178.536 282.284,177.203 284.5,176.5C 288.898,174.637 293.231,172.471 297.5,170C 297.642,166.027 299.642,163.86 303.5,163.5 Z"/></g>
<g><path style="opacity:1" fill="#ea272c" d="M 276.5,194.5 C 282.714,195.937 283.047,198.27 277.5,201.5C 273.967,199.58 273.633,197.246 276.5,194.5 Z"/></g>
<g><path style="opacity:1" fill="#c5889a" d="M 304.5,178.5 C 304.334,182.514 304.501,186.514 305,190.5C 305.374,191.416 305.874,192.25 306.5,193C 311.155,193.499 315.821,193.666 320.5,193.5C 320.628,191.345 320.128,189.345 319,187.5C 315.888,184.899 313.388,181.899 311.5,178.5C 313.833,180.5 316.167,182.5 318.5,184.5C 319.315,185.837 320.482,186.837 322,187.5C 322.944,190.347 322.444,192.847 320.5,195C 305.335,198.672 300.002,193.172 304.5,178.5 Z"/></g>
<g><path style="opacity:1" fill="#c48c9e" d="M 283.5,185.5 C 285.833,183.833 287.833,181.833 289.5,179.5C 290.641,177.771 292.307,176.771 294.5,176.5C 295.772,176.57 296.938,176.903 298,177.5C 299.563,182.718 299.896,188.051 299,193.5C 298.25,194.126 297.416,194.626 296.5,195C 291.5,195.667 286.5,195.667 281.5,195C 279.937,191.314 280.604,188.147 283.5,185.5 Z"/></g>
<g><path style="opacity:1" fill="#b4b7cf" d="M 311.5,178.5 C 313.388,181.899 315.888,184.899 319,187.5C 320.128,189.345 320.628,191.345 320.5,193.5C 315.821,193.666 311.155,193.499 306.5,193C 305.874,192.25 305.374,191.416 305,190.5C 304.501,186.514 304.334,182.514 304.5,178.5C 305.312,177.007 306.645,176.34 308.5,176.5C 310.03,176.64 311.03,177.307 311.5,178.5 Z"/></g>
<g><path style="opacity:1" fill="#b0bed8" d="M 293.5,178.5 C 294.822,178.33 295.989,178.663 297,179.5C 300.317,192.513 295.484,197.013 282.5,193C 281.253,191.506 281.253,190.006 282.5,188.5C 286.213,185.116 289.879,181.783 293.5,178.5 Z"/></g>
<g><path style="opacity:1" fill="#eb3034" d="M 284.5,176.5 C 286.167,176.5 287.833,176.5 289.5,176.5C 289.5,177.5 289.5,178.5 289.5,179.5C 287.833,181.833 285.833,183.833 283.5,185.5C 282.5,185.5 281.5,185.5 280.5,185.5C 280.34,183.801 280.506,182.134 281,180.5C 282.376,179.295 283.542,177.962 284.5,176.5 Z"/></g>
<g><path style="opacity:1" fill="#ef272a" d="M 318.5,184.5 C 317.272,181.925 315.605,179.592 313.5,177.5C 317.195,175.814 320.029,176.814 322,180.5C 323.111,184.472 321.945,185.806 318.5,184.5 Z"/></g>
<g><path style="opacity:1" fill="#d5626e" d="M 333.5,199.5 C 332.737,200.268 331.737,200.768 330.5,201C 328.943,203.296 327.276,205.462 325.5,207.5C 324.74,210.187 324.073,212.853 323.5,215.5C 321.405,216.412 319.405,217.579 317.5,219C 315.866,219.494 314.199,219.66 312.5,219.5C 312.5,218.167 312.5,216.833 312.5,215.5C 315.771,212.732 318.938,209.732 322,206.5C 322.494,204.866 322.66,203.199 322.5,201.5C 321.5,201.5 320.5,201.5 319.5,201.5C 305.477,197.52 300.144,202.853 303.5,217.5C 302.185,212.32 302.185,206.986 303.5,201.5C 304.308,201.192 304.975,200.692 305.5,200C 311.167,199.333 316.833,199.333 322.5,200C 323.866,201.6 324.866,203.433 325.5,205.5C 326.779,201.544 329.446,199.544 333.5,199.5 Z"/></g>
<g><path style="opacity:1" fill="#b3bad2" d="M 319.5,201.5 C 320.5,201.5 321.5,201.5 322.5,201.5C 322.66,203.199 322.494,204.866 322,206.5C 318.938,209.732 315.771,212.732 312.5,215.5C 310.118,217.046 307.451,217.713 304.5,217.5C 301.326,204.343 306.326,199.009 319.5,201.5 Z"/></g>
<g><path style="opacity:1" fill="#b6b2ca" d="M 297.5,200.5 C 297.833,201.167 298.167,201.833 298.5,202.5C 298.666,207.511 298.499,212.511 298,217.5C 295.959,218.423 293.792,218.756 291.5,218.5C 290.269,214.266 287.602,211.266 283.5,209.5C 282.632,207.598 281.632,205.765 280.5,204C 280.759,202.739 281.426,201.739 282.5,201C 287.489,200.501 292.489,200.334 297.5,200.5 Z"/></g>
<g><path style="opacity:1" fill="#dd4b54" d="M 334.5,195.5 C 334.768,197.099 334.434,198.432 333.5,199.5C 329.446,199.544 326.779,201.544 325.5,205.5C 324.866,203.433 323.866,201.6 322.5,200C 316.833,199.333 311.167,199.333 305.5,200C 304.975,200.692 304.308,201.192 303.5,201.5C 302.185,206.986 302.185,212.32 303.5,217.5C 303.611,218.117 303.944,218.617 304.5,219C 306.473,219.495 308.473,219.662 310.5,219.5C 310.67,220.822 310.337,221.989 309.5,223C 305.215,223.117 303.215,225.283 303.5,229.5C 302.167,229.5 300.833,229.5 299.5,229.5C 299.785,227.712 299.452,226.045 298.5,224.5C 296.664,223.972 294.997,223.306 293.5,222.5C 295.035,220.948 296.869,219.615 299,218.5C 299.817,212.984 299.651,207.65 298.5,202.5C 298.167,201.833 297.833,201.167 297.5,200.5C 297.389,199.883 297.056,199.383 296.5,199C 292.459,198.827 288.459,198.327 284.5,197.5C 290.442,196.931 296.276,195.931 302,194.5C 308.288,196.509 314.788,197.009 321.5,196C 323.422,194.58 324.755,192.747 325.5,190.5C 327.315,194.317 330.315,195.984 334.5,195.5 Z"/></g>
<g><path style="opacity:1" fill="#eb2f33" d="M 283.5,209.5 C 285.127,211.63 286.96,213.63 289,215.5C 289.483,216.448 289.649,217.448 289.5,218.5C 283.5,218.5 280.5,215.5 280.5,209.5C 281.5,209.5 282.5,209.5 283.5,209.5 Z"/></g>
<g><path style="opacity:1" fill="#f11f23" d="M 320.5,209.5 C 321.649,209.791 322.316,210.624 322.5,212C 321.044,216.004 318.377,217.504 314.5,216.5C 316.523,214.147 318.523,211.814 320.5,209.5 Z"/></g>
<g><path style="opacity:1" fill="#9e97e1" d="M 430.5,142.5 C 433.889,147.009 436.389,152.009 438,157.5C 440.803,167.047 443.137,176.714 445,186.5C 445.775,199.241 445.275,211.908 443.5,224.5C 443.5,224.833 443.5,225.167 443.5,225.5C 442.677,228.977 442.177,232.644 442,236.5C 441.722,237.416 441.222,238.082 440.5,238.5C 441.291,229.101 442.291,219.768 443.5,210.5C 443.052,200.497 442.552,190.497 442,180.5C 439.351,167.379 435.518,154.712 430.5,142.5 Z"/></g>
<g><path style="opacity:1" fill="#cb7d8d" d="M 319.5,201.5 C 306.326,199.009 301.326,204.343 304.5,217.5C 307.451,217.713 310.118,217.046 312.5,215.5C 312.5,216.833 312.5,218.167 312.5,219.5C 314.199,219.66 315.866,219.494 317.5,219C 319.405,217.579 321.405,216.412 323.5,215.5C 321.163,219.787 317.496,221.62 312.5,221C 311.833,222 311.167,223 310.5,224C 308.347,224.099 306.681,224.933 305.5,226.5C 304.539,228.265 304.205,230.265 304.5,232.5C 299.773,233.273 297.273,231.273 297,226.5C 295.266,225.751 293.433,225.251 291.5,225C 290.177,224.184 289.511,223.017 289.5,221.5C 290.708,222.234 292.041,222.567 293.5,222.5C 294.997,223.306 296.664,223.972 298.5,224.5C 299.452,226.045 299.785,227.712 299.5,229.5C 300.833,229.5 302.167,229.5 303.5,229.5C 303.215,225.283 305.215,223.117 309.5,223C 310.337,221.989 310.67,220.822 310.5,219.5C 308.473,219.662 306.473,219.495 304.5,219C 303.944,218.617 303.611,218.117 303.5,217.5C 300.144,202.853 305.477,197.52 319.5,201.5 Z"/></g>
<g><path style="opacity:1" fill="#bba5ba" d="M 325.5,185.5 C 328.773,189.335 332.606,192.669 337,195.5C 337.667,197.167 337.667,198.833 337,200.5C 335,201.833 333,203.167 331,204.5C 330.803,206.861 329.636,208.528 327.5,209.5C 326.106,216.729 321.772,221.229 314.5,223C 312.267,225.907 309.267,227.074 305.5,226.5C 306.681,224.933 308.347,224.099 310.5,224C 311.167,223 311.833,222 312.5,221C 317.496,221.62 321.163,219.787 323.5,215.5C 324.073,212.853 324.74,210.187 325.5,207.5C 327.276,205.462 328.943,203.296 330.5,201C 331.737,200.768 332.737,200.268 333.5,199.5C 334.434,198.432 334.768,197.099 334.5,195.5C 333.042,193.989 331.209,192.989 329,192.5C 328.867,189.596 327.7,187.262 325.5,185.5 Z"/></g>
<g><path style="opacity:1" fill="#9785e2" d="M 105.5,190.5 C 105.669,206.864 106.502,223.197 108,239.5C 109.43,242.353 110.263,245.353 110.5,248.5C 108.237,244.375 106.57,240.041 105.5,235.5C 103.815,221.215 103.315,206.882 104,192.5C 104.278,191.584 104.778,190.918 105.5,190.5 Z"/></g>
<g><path style="opacity:1" fill="#722cea" d="M 447.5,221.5 C 447.539,222.756 447.039,223.756 446,224.5C 445.667,230.5 445.333,236.5 445,242.5C 443.915,243.293 442.748,243.96 441.5,244.5C 441.046,251.221 439.546,257.554 437,263.5C 435.989,264.337 434.822,264.67 433.5,264.5C 433.808,266.924 433.474,269.257 432.5,271.5C 429.754,272.245 428.088,273.912 427.5,276.5C 427.5,275.5 427.5,274.5 427.5,273.5C 429.574,270.944 430.907,267.944 431.5,264.5C 434.74,262.887 436.24,260.22 436,256.5C 437.385,255.449 438.385,254.116 439,252.5C 438.751,247.32 440.085,242.653 443,238.5C 443.499,234.179 443.666,229.846 443.5,225.5C 443.5,225.167 443.5,224.833 443.5,224.5C 444.833,223.5 446.167,222.5 447.5,221.5 Z"/></g>
<g><path style="opacity:1" fill="#8558e6" d="M 166.5,222.5 C 168.248,228.461 169.248,234.794 169.5,241.5C 168.883,241.389 168.383,241.056 168,240.5C 167.171,235.863 166.671,231.196 166.5,226.5C 166.5,225.167 166.5,223.833 166.5,222.5 Z"/></g>
<g><path style="opacity:1" fill="#947de3" d="M 443.5,225.5 C 443.666,229.846 443.499,234.179 443,238.5C 440.085,242.653 438.751,247.32 439,252.5C 438.385,254.116 437.385,255.449 436,256.5C 436.24,260.22 434.74,262.887 431.5,264.5C 432.167,262.833 432.833,261.167 433.5,259.5C 435.459,252.369 437.792,245.369 440.5,238.5C 441.222,238.082 441.722,237.416 442,236.5C 442.177,232.644 442.677,228.977 443.5,225.5 Z"/></g>
<g><path style="opacity:1" fill="#9e96e1" d="M 504.5,243.5 C 501.058,257.33 496.892,270.996 492,284.5C 490.887,285.305 489.721,285.972 488.5,286.5C 488.977,283.345 489.977,280.345 491.5,277.5C 494.168,270.456 496.835,263.456 499.5,256.5C 500.748,253.058 501.581,249.392 502,245.5C 502.708,244.619 503.542,243.953 504.5,243.5 Z"/></g>
<g><path style="opacity:1" fill="#a2a1e0" d="M 105.5,235.5 C 106.57,240.041 108.237,244.375 110.5,248.5C 109.647,253.782 110.814,258.448 114,262.5C 114.278,266.826 115.445,270.826 117.5,274.5C 116.542,274.047 115.708,273.381 115,272.5C 114.004,268.508 112.338,264.842 110,261.5C 109.485,255.956 108.152,250.623 106,245.5C 105.502,242.183 105.335,238.85 105.5,235.5 Z"/></g>
<g><path style="opacity:1" fill="#a4a5e0" d="M 433.5,259.5 C 432.833,261.167 432.167,262.833 431.5,264.5C 430.907,267.944 429.574,270.944 427.5,273.5C 423.56,278.968 419.726,284.635 416,290.5C 413.963,292.706 411.797,294.706 409.5,296.5C 412.841,290.883 416.674,285.55 421,280.5C 421.494,278.866 421.66,277.199 421.5,275.5C 422.675,275.719 423.675,275.386 424.5,274.5C 424.848,271.59 426.348,269.59 429,268.5C 429.285,264.764 430.785,261.764 433.5,259.5 Z"/></g>
<g><path style="opacity:1" fill="#8e6de4" d="M 169.5,241.5 C 170.857,242.59 171.857,243.924 172.5,245.5C 172.421,248.271 172.921,250.937 174,253.5C 178.504,261.286 182.837,269.286 187,277.5C 194.575,289.242 203.742,299.575 214.5,308.5C 218.167,312.5 221.833,316.5 225.5,320.5C 209.164,309.163 195.497,295.163 184.5,278.5C 183.201,272.364 180.368,267.03 176,262.5C 175.624,259.025 174.291,256.025 172,253.5C 171.057,249.504 170.224,245.504 169.5,241.5 Z"/></g>
<g><path style="opacity:1" fill="#7b40e8" d="M 491.5,277.5 C 489.977,280.345 488.977,283.345 488.5,286.5C 488.5,286.833 488.5,287.167 488.5,287.5C 485.787,290.093 483.787,293.093 482.5,296.5C 483.645,289.214 486.645,282.881 491.5,277.5 Z"/></g>
<g><path style="opacity:1" fill="#fcfdfd" d="M 44.5,377.5 C 44.5,376.167 44.5,374.833 44.5,373.5C 44.5,370.5 44.5,367.5 44.5,364.5C 47.1873,364.664 49.854,364.497 52.5,364C 54.7049,362.294 57.0383,360.794 59.5,359.5C 60.6386,350.548 60.8052,341.548 60,332.5C 59.5,332 59,331.5 58.5,331C 54.1667,330.667 49.8333,330.333 45.5,330C 44.3895,327.263 44.2228,324.429 45,321.5C 49.7367,320.531 54.57,320.197 59.5,320.5C 60.261,310.199 60.761,299.866 61,289.5C 65.4014,288.533 69.9014,288.2 74.5,288.5C 74.7163,290.681 73.883,292.347 72,293.5C 71.3333,301.5 71.3333,309.5 72,317.5C 72.3879,318.428 73.0546,319.095 74,319.5C 76.8541,320.114 79.6875,320.781 82.5,321.5C 83.7485,324.506 83.7485,327.506 82.5,330.5C 79.0743,330.975 75.9076,331.975 73,333.5C 72.3333,339.833 72.3333,346.167 73,352.5C 73.8388,353.624 75.0055,354.291 76.5,354.5C 79.4818,353.668 82.4818,353.501 85.5,354C 86.4438,356.719 86.7771,359.552 86.5,362.5C 81.5042,364.659 76.3375,366.659 71,368.5C 70.2069,380.527 70.3736,392.527 71.5,404.5C 69.6552,409.934 68.9885,415.601 69.5,421.5C 62.2361,421.802 55.0695,421.802 48,421.5C 47.3333,418.5 47.3333,415.5 48,412.5C 50.7405,411.718 53.5738,411.218 56.5,411C 58.3333,410.5 59.5,409.333 60,407.5C 60.6667,397.833 60.6667,388.167 60,378.5C 59.5212,376.354 58.1879,375.354 56,375.5C 53.3892,376.607 50.8892,377.941 48.5,379.5C 46.9271,379.248 45.5938,378.582 44.5,377.5 Z"/></g>
<g><path style="opacity:1" fill="#b996f4" d="M 117.5,274.5 C 120.68,279.861 123.68,285.361 126.5,291C 143.167,291.333 159.833,291.667 176.5,292C 177.153,296.419 177.486,300.919 177.5,305.5C 177.492,310.222 176.825,314.555 175.5,318.5C 175.826,309.983 175.493,301.65 174.5,293.5C 158.338,292.669 142.005,292.169 125.5,292C 124.333,290.833 123.167,289.667 122,288.5C 119.655,284.135 118.155,279.468 117.5,274.5 Z"/></g>
<g><path style="opacity:1" fill="#cbd7e9" d="M 390.5,313.5 C 390.031,321.489 391.031,329.155 393.5,336.5C 392.504,336.586 391.671,336.252 391,335.5C 390.667,333.833 390.333,332.167 390,330.5C 389.599,319.068 388.599,307.735 387,296.5C 386.5,296 386,295.5 385.5,295C 379.584,294.193 373.75,294.359 368,295.5C 367.809,301.462 366.475,307.128 364,312.5C 363.667,316.5 363.333,320.5 363,324.5C 361.367,326.453 360.201,328.62 359.5,331C 359.773,332.533 360.106,334.033 360.5,335.5C 359.5,335.167 358.833,334.5 358.5,333.5C 357.445,330.927 357.278,328.261 358,325.5C 361.529,314.058 364.695,302.558 367.5,291C 374.276,290.08 380.943,290.414 387.5,292C 388.126,292.75 388.626,293.584 389,294.5C 389.556,300.835 390.056,307.168 390.5,313.5 Z"/></g>
<g><path style="opacity:1" fill="#fcfcfe" d="M 393.5,336.5 C 393.5,336.833 393.5,337.167 393.5,337.5C 393.334,342.511 393.501,347.511 394,352.5C 394.415,354.291 395.415,355.624 397,356.5C 396.898,360.956 397.732,364.956 399.5,368.5C 400.272,369.694 401.272,370.694 402.5,371.5C 402.194,374.385 402.527,377.052 403.5,379.5C 403.941,384.01 405.108,388.344 407,392.5C 407.335,397.519 407.835,402.519 408.5,407.5C 408.291,408.994 407.624,410.161 406.5,411C 402.683,412.023 399.183,411.523 396,409.5C 395.65,406.278 394.316,403.612 392,401.5C 391.667,397.833 391.333,394.167 391,390.5C 389.259,389.242 387.426,388.242 385.5,387.5C 385.389,386.883 385.056,386.383 384.5,386C 377.833,385.333 371.167,385.333 364.5,386C 361.814,388.546 360.814,391.713 361.5,395.5C 359.783,400.11 358.783,405.11 358.5,410.5C 344.172,414.86 340.839,410.86 348.5,398.5C 349.321,395.359 349.821,392.025 350,388.5C 351.527,386.779 352.527,384.779 353,382.5C 353.172,377.798 353.672,373.132 354.5,368.5C 355.478,368.023 356.311,367.357 357,366.5C 357.499,360.509 357.666,354.509 357.5,348.5C 360.161,344.649 361.161,340.316 360.5,335.5C 360.106,334.033 359.773,332.533 359.5,331C 360.201,328.62 361.367,326.453 363,324.5C 363.333,320.5 363.667,316.5 364,312.5C 366.475,307.128 367.809,301.462 368,295.5C 373.75,294.359 379.584,294.193 385.5,295C 386,295.5 386.5,296 387,296.5C 388.599,307.735 389.599,319.068 390,330.5C 390.333,332.167 390.667,333.833 391,335.5C 391.671,336.252 392.504,336.586 393.5,336.5 Z"/></g>
<g><path style="opacity:1" fill="#8d4ef0" d="M 471.5,315.5 C 471.5,316.167 471.5,316.833 471.5,317.5C 470.925,319.411 469.925,321.078 468.5,322.5C 467.067,323.833 465.733,325.333 464.5,327C 463.207,327.49 461.873,327.657 460.5,327.5C 460.667,316.495 460.5,305.495 460,294.5C 455.333,293.167 450.667,293.167 446,294.5C 445.5,311.83 445.333,329.163 445.5,346.5C 445.167,346.5 444.833,346.5 444.5,346.5C 444.333,328.83 444.5,311.164 445,293.5C 445.5,293 446,292.5 446.5,292C 450.833,291.333 455.167,291.333 459.5,292C 460,292.5 460.5,293 461,293.5C 461.5,303.494 461.666,313.494 461.5,323.5C 462.873,323.657 464.207,323.49 465.5,323C 466.711,319.852 468.711,317.352 471.5,315.5 Z"/></g>
<g><path style="opacity:1" fill="#fbfbfd" d="M 246.5,333.5 C 245.337,354.663 245.171,375.996 246,397.5C 258.707,405.205 272.54,407.705 287.5,405C 289.66,404.004 291.327,402.504 292.5,400.5C 295.663,398.754 298.996,397.254 302.5,396C 304.722,393.044 307.055,390.21 309.5,387.5C 309.5,386.833 309.833,386.5 310.5,386.5C 312.559,383.851 315.225,383.018 318.5,384C 320.333,385.833 322.167,387.667 324,389.5C 324.765,391.066 324.598,392.399 323.5,393.5C 320.732,395.087 318.065,396.92 315.5,399C 314.606,401.892 312.94,404.226 310.5,406C 304.855,408.158 299.855,411.325 295.5,415.5C 285.068,419.346 274.235,421.013 263,420.5C 248.851,420.152 238.517,413.485 232,400.5C 231.341,397.112 231.508,393.779 232.5,390.5C 232.667,368.164 232.5,345.831 232,323.5C 230.955,322.627 230.122,321.627 229.5,320.5C 230.328,314.013 230.828,307.346 231,300.5C 236.407,299.527 241.907,299.193 247.5,299.5C 247.79,310.884 247.457,322.217 246.5,333.5 Z"/></g>
<g><path style="opacity:1" fill="#b182f6" d="M 460.5,327.5 C 459.833,316.833 459.167,306.167 458.5,295.5C 458.167,295.5 457.833,295.5 457.5,295.5C 454.101,294.18 450.601,294.18 447,295.5C 446.5,312.497 446.333,329.497 446.5,346.5C 446.167,346.5 445.833,346.5 445.5,346.5C 445.333,329.163 445.5,311.83 446,294.5C 450.667,293.167 455.333,293.167 460,294.5C 460.5,305.495 460.667,316.495 460.5,327.5 Z"/></g>
<g><path style="opacity:1" fill="#cdaff8" d="M 457.5,295.5 C 454.223,295.216 451.057,295.549 448,296.5C 447.832,313.338 447.332,330.005 446.5,346.5C 446.333,329.497 446.5,312.497 447,295.5C 450.601,294.18 454.101,294.18 457.5,295.5 Z"/></g>
<g><path style="opacity:1" fill="#8353e6" d="M 482.5,297.5 C 480.347,301.807 478.18,306.14 476,310.5C 474.951,312.618 473.451,314.284 471.5,315.5C 474.418,309.937 477.251,304.271 480,298.5C 480.671,297.748 481.504,297.414 482.5,297.5 Z"/></g>
<g><path style="opacity:1" fill="#9278e4" d="M 427.5,273.5 C 427.5,274.5 427.5,275.5 427.5,276.5C 422.194,284.384 416.361,292.051 410,299.5C 403.69,304.643 397.856,310.31 392.5,316.5C 392.167,316.5 391.833,316.5 391.5,316.5C 391.557,315.391 391.89,314.391 392.5,313.5C 398.581,308.085 404.248,302.419 409.5,296.5C 411.797,294.706 413.963,292.706 416,290.5C 419.726,284.635 423.56,278.968 427.5,273.5 Z"/></g>
<g><path style="opacity:1" fill="#c3a3f6" d="M 175.5,318.5 C 175.389,319.117 175.056,319.617 174.5,320C 171.167,320.667 167.833,320.667 164.5,320C 163.28,315.987 161.946,312.153 160.5,308.5C 152.35,307.507 144.017,307.174 135.5,307.5C 135.5,309.167 135.5,310.833 135.5,312.5C 136.833,312.5 138.167,312.5 139.5,312.5C 139.5,313.167 139.167,313.5 138.5,313.5C 133.74,313.799 132.406,311.799 134.5,307.5C 143.657,306.342 152.991,306.176 162.5,307C 163,307.5 163.5,308 164,308.5C 164.498,311.817 164.665,315.15 164.5,318.5C 168.167,318.5 171.833,318.5 175.5,318.5 Z"/></g>
<g><path style="opacity:1" fill="#d7e0ee" d="M 124.5,293.5 C 114.161,293.334 103.828,293.5 93.5,294C 92.5155,303.083 92.1822,312.249 92.5,321.5C 96.1667,321.5 99.8333,321.5 103.5,321.5C 103.334,317.154 103.501,312.821 104,308.5C 104.5,308 105,307.5 105.5,307C 125.159,305.936 144.826,305.602 164.5,306C 165.46,309.73 165.793,313.563 165.5,317.5C 168.5,317.5 171.5,317.5 174.5,317.5C 174.5,309.5 174.5,301.5 174.5,293.5C 175.493,301.65 175.826,309.983 175.5,318.5C 171.833,318.5 168.167,318.5 164.5,318.5C 164.665,315.15 164.498,311.817 164,308.5C 163.5,308 163,307.5 162.5,307C 152.991,306.176 143.657,306.342 134.5,307.5C 132.956,307.703 131.622,308.37 130.5,309.5C 131.767,333.688 120.933,349.022 98,355.5C 96.2894,355.561 94.956,354.894 94,353.5C 92.3333,350.833 90.6667,348.167 89,345.5C 88.3333,343.5 88.3333,341.5 89,339.5C 93.891,338.023 98.7244,336.19 103.5,334C 105.333,332.167 107.167,330.333 109,328.5C 111.274,322.878 113.107,317.044 114.5,311C 114.355,310.228 114.022,309.561 113.5,309C 111.231,308.242 109.064,308.409 107,309.5C 106.8,313.753 106.3,317.92 105.5,322C 100.493,324.163 95.6597,323.996 91,321.5C 90.3333,311.833 90.3333,302.167 91,292.5C 101.09,291.348 111.256,291.181 121.5,292C 122.737,292.232 123.737,292.732 124.5,293.5 Z"/></g>
<g><path style="opacity:1" fill="#fefefe" d="M 124.5,293.5 C 141.167,293.5 157.833,293.5 174.5,293.5C 174.5,301.5 174.5,309.5 174.5,317.5C 171.5,317.5 168.5,317.5 165.5,317.5C 165.793,313.563 165.46,309.73 164.5,306C 144.826,305.602 125.159,305.936 105.5,307C 105,307.5 104.5,308 104,308.5C 103.501,312.821 103.334,317.154 103.5,321.5C 99.8333,321.5 96.1667,321.5 92.5,321.5C 92.1822,312.249 92.5155,303.083 93.5,294C 103.828,293.5 114.161,293.334 124.5,293.5 Z"/></g>
<g><path style="opacity:1" fill="#9f64f3" d="M 160.5,308.5 C 158.167,308.5 155.833,308.5 153.5,308.5C 153.5,315.833 153.5,323.167 153.5,330.5C 152.833,324.5 152.167,318.5 151.5,312.5C 147.5,311.167 143.5,311.167 139.5,312.5C 138.167,312.5 136.833,312.5 135.5,312.5C 135.5,310.833 135.5,309.167 135.5,307.5C 144.017,307.174 152.35,307.507 160.5,308.5 Z"/></g>
<g><path style="opacity:1" fill="#9b90e2" d="M 488.5,287.5 C 488.657,288.873 488.49,290.207 488,291.5C 485.126,295.915 482.792,300.582 481,305.5C 478.378,309.953 475.211,313.953 471.5,317.5C 471.5,316.833 471.5,316.167 471.5,315.5C 473.451,314.284 474.951,312.618 476,310.5C 478.18,306.14 480.347,301.807 482.5,297.5C 482.5,297.167 482.5,296.833 482.5,296.5C 483.787,293.093 485.787,290.093 488.5,287.5 Z"/></g>
<g><path style="opacity:1" fill="#f9fafc" d="M 116.5,311.5 C 120.106,311.211 123.606,311.544 127,312.5C 128.523,325.6 124.69,336.767 115.5,346C 111.895,346.643 108.895,348.31 106.5,351C 102.892,352.323 99.2249,352.989 95.5,353C 94.9941,350.468 93.8274,348.302 92,346.5C 91.3333,344.5 91.3333,342.5 92,340.5C 102.71,338.126 110.043,331.793 114,321.5C 114.026,317.861 114.86,314.528 116.5,311.5 Z"/></g>
<g><path style="opacity:1" fill="#f9f9fd" d="M 177.5,329.5 C 178.66,336.463 176.326,342.129 170.5,346.5C 161.827,346.666 153.16,346.5 144.5,346C 143.211,344.198 141.544,343.031 139.5,342.5C 139.217,341.711 138.717,341.044 138,340.5C 137.198,331.755 137.364,323.088 138.5,314.5C 142.099,313.656 145.766,313.323 149.5,313.5C 149.5,320.833 149.5,328.167 149.5,335.5C 155.452,338.098 161.452,338.098 167.5,335.5C 168.466,333.604 168.799,331.604 168.5,329.5C 171.5,329.5 174.5,329.5 177.5,329.5 Z"/></g>
<g><path style="opacity:1" fill="#660cee" d="M 162.5,333.5 C 160.372,334.629 158.039,334.796 155.5,334C 154.748,333.329 154.414,332.496 154.5,331.5C 154.5,324.167 154.5,316.833 154.5,309.5C 156.5,309.5 158.5,309.5 160.5,309.5C 161.49,317.465 162.157,325.465 162.5,333.5 Z"/></g>
<g><path style="opacity:1" fill="#8541ef" d="M 112.5,152.5 C 113.093,159.506 111.926,166.173 109,172.5C 108.333,194.5 108.333,216.5 109,238.5C 111,239.167 112.333,240.5 113,242.5C 113.53,252.158 114.863,261.491 117,270.5C 119.982,272.196 121.316,274.863 121,278.5C 122.011,279.337 123.178,279.67 124.5,279.5C 124.071,283.459 125.071,286.959 127.5,290C 144.74,290.174 161.907,290.674 179,291.5C 179.667,300.5 179.667,309.5 179,318.5C 177.878,320.624 176.378,322.457 174.5,324C 176.519,324.45 178.352,325.283 180,326.5C 182.458,336.14 179.625,343.64 171.5,349C 161.09,349.191 150.757,349.691 140.5,350.5C 150.292,348.842 160.292,347.842 170.5,347.5C 174.912,345.582 177.746,342.249 179,337.5C 179.752,334.106 179.585,330.773 178.5,327.5C 174.601,326.016 170.601,325.516 166.5,326C 165.751,327.734 165.251,329.567 165,331.5C 164.292,332.381 163.458,333.047 162.5,333.5C 162.157,325.465 161.49,317.465 160.5,309.5C 158.5,309.5 156.5,309.5 154.5,309.5C 154.5,316.833 154.5,324.167 154.5,331.5C 153.833,331.5 153.5,331.167 153.5,330.5C 153.5,323.167 153.5,315.833 153.5,308.5C 155.833,308.5 158.167,308.5 160.5,308.5C 161.946,312.153 163.28,315.987 164.5,320C 167.833,320.667 171.167,320.667 174.5,320C 175.056,319.617 175.389,319.117 175.5,318.5C 176.825,314.555 177.492,310.222 177.5,305.5C 177.486,300.919 177.153,296.419 176.5,292C 159.833,291.667 143.167,291.333 126.5,291C 123.68,285.361 120.68,279.861 117.5,274.5C 115.445,270.826 114.278,266.826 114,262.5C 110.814,258.448 109.647,253.782 110.5,248.5C 110.263,245.353 109.43,242.353 108,239.5C 106.502,223.197 105.669,206.864 105.5,190.5C 106.327,185.349 106.827,180.016 107,174.5C 109.495,167.188 111.328,159.855 112.5,152.5 Z"/></g>
<g><path style="opacity:1" fill="#b99ef0" d="M 458.5,295.5 C 459.167,306.167 459.833,316.833 460.5,327.5C 461.873,327.657 463.207,327.49 464.5,327C 465.733,325.333 467.067,323.833 468.5,322.5C 467.184,326.81 464.518,329.81 460.5,331.5C 459.833,330.833 459.167,330.167 458.5,329.5C 458.5,318.167 458.5,306.833 458.5,295.5 Z"/></g>
<g><path style="opacity:1" fill="#d0b4f9" d="M 375.5,324.5 C 377.262,324.357 378.929,324.691 380.5,325.5C 382.416,336.345 383.916,347.345 385,358.5C 388.841,363.054 389.341,367.887 386.5,373C 379.842,373.5 373.175,373.666 366.5,373.5C 366.334,368.156 366.501,362.823 367,357.5C 368.385,356.449 369.385,355.116 370,353.5C 370.17,347.472 370.67,341.472 371.5,335.5C 372.478,335.023 373.311,334.357 374,333.5C 374.259,330.413 374.759,327.413 375.5,324.5 Z"/></g>
<g><path style="opacity:1" fill="#b78bf7" d="M 151.5,312.5 C 152.167,318.5 152.833,324.5 153.5,330.5C 153.5,331.167 153.833,331.5 154.5,331.5C 154.414,332.496 154.748,333.329 155.5,334C 158.039,334.796 160.372,334.629 162.5,333.5C 163.458,333.047 164.292,332.381 165,331.5C 165.251,329.567 165.751,327.734 166.5,326C 170.601,325.516 174.601,326.016 178.5,327.5C 179.585,330.773 179.752,334.106 179,337.5C 177.746,342.249 174.912,345.582 170.5,347.5C 170.5,347.167 170.5,346.833 170.5,346.5C 176.326,342.129 178.66,336.463 177.5,329.5C 174.36,328.359 171.027,328.192 167.5,329C 163.88,337.267 158.713,338.434 152,332.5C 151.5,325.842 151.334,319.175 151.5,312.5 Z"/></g>
<g><path style="opacity:1" fill="#a46ff3" d="M 225.5,320.5 C 227.716,321.203 229.549,322.536 231,324.5C 231.5,346.164 231.667,367.831 231.5,389.5C 228.171,389.785 225.171,389.118 222.5,387.5C 224.833,387.5 227.167,387.5 229.5,387.5C 229.667,366.497 229.5,345.497 229,324.5C 227.624,323.295 226.458,321.962 225.5,320.5 Z"/></g>
<g><path style="opacity:1" fill="#a268f4" d="M 391.5,316.5 C 391.833,316.5 392.167,316.5 392.5,316.5C 396.095,334.806 399.428,353.14 402.5,371.5C 401.272,370.694 400.272,369.694 399.5,368.5C 400.07,360.788 398.737,353.455 395.5,346.5C 393.607,336.655 392.273,326.655 391.5,316.5 Z"/></g>
<g><path style="opacity:1" fill="#c2b0f0" d="M 214.5,308.5 C 219.528,312.534 224.528,316.534 229.5,320.5C 230.122,321.627 230.955,322.627 232,323.5C 232.5,345.831 232.667,368.164 232.5,390.5C 225.228,391.534 219.228,389.2 214.5,383.5C 217.259,384.642 219.926,385.976 222.5,387.5C 225.171,389.118 228.171,389.785 231.5,389.5C 231.667,367.831 231.5,346.164 231,324.5C 229.549,322.536 227.716,321.203 225.5,320.5C 221.833,316.5 218.167,312.5 214.5,308.5 Z"/></g>
<g><path style="opacity:1" fill="#b4a4eb" d="M 358.5,333.5 C 358.833,334.5 359.5,335.167 360.5,335.5C 361.161,340.316 360.161,344.649 357.5,348.5C 357.167,348.5 356.833,348.5 356.5,348.5C 358.877,344.856 359.711,340.856 359,336.5C 358.107,335.919 357.107,335.585 356,335.5C 353.914,336.418 351.747,337.085 349.5,337.5C 351.64,334.387 354.64,333.054 358.5,333.5 Z"/></g>
<g><path style="opacity:1" fill="#e5d6fc" d="M 151.5,312.5 C 151.334,319.175 151.5,325.842 152,332.5C 158.713,338.434 163.88,337.267 167.5,329C 171.027,328.192 174.36,328.359 177.5,329.5C 174.5,329.5 171.5,329.5 168.5,329.5C 168.799,331.604 168.466,333.604 167.5,335.5C 161.452,338.098 155.452,338.098 149.5,335.5C 149.5,328.167 149.5,320.833 149.5,313.5C 145.766,313.323 142.099,313.656 138.5,314.5C 138.5,314.167 138.5,313.833 138.5,313.5C 139.167,313.5 139.5,313.167 139.5,312.5C 143.5,311.167 147.5,311.167 151.5,312.5 Z"/></g>
<g><path style="opacity:1" fill="#c4a1f7" d="M 252.5,333.5 C 250.856,333.286 249.356,333.62 248,334.5C 247.5,354.497 247.333,374.497 247.5,394.5C 246.503,374.34 246.17,354.007 246.5,333.5C 248.611,332.258 250.611,332.258 252.5,333.5 Z"/></g>
<g><path style="opacity:1" fill="#6204ed" d="M 265.5,339.5 C 265.833,339.5 266.167,339.5 266.5,339.5C 267.625,341.129 268.959,342.629 270.5,344C 274.662,344.541 278.828,345.041 283,345.5C 285.281,345.563 287.114,346.397 288.5,348C 294,348.167 299.5,348.333 305,348.5C 310.876,348.495 316.376,347.829 321.5,346.5C 322.833,346.5 323.5,345.833 323.5,344.5C 329.88,344.607 336.213,344.107 342.5,343C 343.252,342.329 343.586,341.496 343.5,340.5C 343.5,339.833 343.833,339.5 344.5,339.5C 349.079,339.271 353.412,338.271 357.5,336.5C 355.593,346.514 353.593,356.514 351.5,366.5C 350.631,368.717 350.298,371.05 350.5,373.5C 349.288,374.23 348.288,375.23 347.5,376.5C 346.287,383.822 345.121,391.155 344,398.5C 342.008,399.328 340.508,400.661 339.5,402.5C 333.132,402.83 326.798,402.496 320.5,401.5C 322.277,398.552 324.777,396.552 328,395.5C 328.167,394.333 328.333,393.167 328.5,392C 327.025,389.321 325.692,386.487 324.5,383.5C 321.439,382.19 320.106,379.857 320.5,376.5C 318.473,376.338 316.473,376.505 314.5,377C 313.748,377.671 313.414,378.504 313.5,379.5C 305.889,388.263 296.889,395.429 286.5,401C 282.922,402.037 279.256,402.537 275.5,402.5C 268.829,401.496 262.162,400.496 255.5,399.5C 252.853,399.071 250.853,397.738 249.5,395.5C 248.358,375.877 248.191,356.21 249,336.5C 249.725,335.941 250.558,335.608 251.5,335.5C 255.853,337.839 260.519,339.172 265.5,339.5 Z"/></g>
<g><path style="opacity:1" fill="#9863ef" d="M 252.5,333.5 C 256.833,335.5 261.167,337.5 265.5,339.5C 260.519,339.172 255.853,337.839 251.5,335.5C 250.558,335.608 249.725,335.941 249,336.5C 248.191,356.21 248.358,375.877 249.5,395.5C 248.833,395.167 248.167,394.833 247.5,394.5C 247.333,374.497 247.5,354.497 248,334.5C 249.356,333.62 250.856,333.286 252.5,333.5 Z"/></g>
<g><path style="opacity:1" fill="#ceaff9" d="M 390.5,313.5 C 391.167,313.5 391.833,313.5 392.5,313.5C 391.89,314.391 391.557,315.391 391.5,316.5C 392.273,326.655 393.607,336.655 395.5,346.5C 394.833,343.5 394.167,340.5 393.5,337.5C 393.5,337.167 393.5,336.833 393.5,336.5C 391.031,329.155 390.031,321.489 390.5,313.5 Z"/></g>
<g><path style="opacity:1" fill="#a4a7e0" d="M 252.5,333.5 C 255.247,333.187 257.914,333.52 260.5,334.5C 261.381,335.971 262.714,336.804 264.5,337C 270.362,337.806 276.029,339.139 281.5,341C 297.167,341.667 312.833,341.667 328.5,341C 335.171,339.765 341.838,338.599 348.5,337.5C 347.167,338.167 345.833,338.833 344.5,339.5C 343.833,339.5 343.5,339.833 343.5,340.5C 336.46,341.294 329.794,342.627 323.5,344.5C 311.136,344.752 298.803,344.418 286.5,343.5C 279.777,343.038 273.111,341.704 266.5,339.5C 266.167,339.5 265.833,339.5 265.5,339.5C 261.167,337.5 256.833,335.5 252.5,333.5 Z"/></g>
<g><path style="opacity:1" fill="#8455e6" d="M 343.5,340.5 C 343.586,341.496 343.252,342.329 342.5,343C 336.213,344.107 329.88,344.607 323.5,344.5C 329.794,342.627 336.46,341.294 343.5,340.5 Z"/></g>
<g><path style="opacity:1" fill="#8963e5" d="M 286.5,343.5 C 298.803,344.418 311.136,344.752 323.5,344.5C 323.5,345.833 322.833,346.5 321.5,346.5C 311.161,346.666 300.828,346.5 290.5,346C 288.934,345.392 287.6,344.558 286.5,343.5 Z"/></g>
<g><path style="opacity:1" fill="#a371f2" d="M 356.5,348.5 C 355.719,353.418 355.219,358.418 355,363.5C 354.722,364.416 354.222,365.082 353.5,365.5C 352.833,365.833 352.167,366.167 351.5,366.5C 353.593,356.514 355.593,346.514 357.5,336.5C 353.412,338.271 349.079,339.271 344.5,339.5C 345.833,338.833 347.167,338.167 348.5,337.5C 348.833,337.5 349.167,337.5 349.5,337.5C 351.747,337.085 353.914,336.418 356,335.5C 357.107,335.585 358.107,335.919 359,336.5C 359.711,340.856 358.877,344.856 356.5,348.5 Z"/></g>
<g><path style="opacity:1" fill="#af80f5" d="M 139.5,342.5 C 140.625,344.129 141.959,345.629 143.5,347C 152.494,347.5 161.494,347.666 170.5,347.5C 160.292,347.842 150.292,348.842 140.5,350.5C 140.232,353.119 140.565,355.619 141.5,358C 154.207,357.849 166.541,358.683 178.5,360.5C 165.829,360.667 153.162,360.5 140.5,360C 139.956,359.283 139.289,358.783 138.5,358.5C 138.5,355.167 138.5,351.833 138.5,348.5C 136.62,348.771 135.287,348.104 134.5,346.5C 134.384,343.09 136.05,341.756 139.5,342.5 Z"/></g>
<g><path style="opacity:1" fill="#d7bffa" d="M 139.5,342.5 C 141.544,343.031 143.211,344.198 144.5,346C 153.16,346.5 161.827,346.666 170.5,346.5C 170.5,346.833 170.5,347.167 170.5,347.5C 161.494,347.666 152.494,347.5 143.5,347C 141.959,345.629 140.625,344.129 139.5,342.5 Z"/></g>
<g><path style="opacity:1" fill="#924ff2" d="M 379.5,337.5 C 378.374,334.473 376.874,334.14 375,336.5C 374.514,346.918 372.681,357.084 369.5,367C 369.585,368.107 369.919,369.107 370.5,370C 375.489,370.499 380.489,370.666 385.5,370.5C 384.5,365.833 383.5,361.167 382.5,356.5C 385.024,361.089 386.358,366.089 386.5,371.5C 380.5,371.5 374.5,371.5 368.5,371.5C 367.965,364.855 369.131,358.522 372,352.5C 372.333,347.167 372.667,341.833 373,336.5C 374.642,334.194 376.142,331.861 377.5,329.5C 378.086,329.709 378.586,330.043 379,330.5C 379.497,332.81 379.663,335.143 379.5,337.5 Z"/></g>
<g><path style="opacity:1" fill="#7533e9" d="M 266.5,339.5 C 273.111,341.704 279.777,343.038 286.5,343.5C 287.6,344.558 288.934,345.392 290.5,346C 300.828,346.5 311.161,346.666 321.5,346.5C 316.376,347.829 310.876,348.495 305,348.5C 299.5,348.333 294,348.167 288.5,348C 287.114,346.397 285.281,345.563 283,345.5C 278.828,345.041 274.662,344.541 270.5,344C 268.959,342.629 267.625,341.129 266.5,339.5 Z"/></g>
<g><path style="opacity:1" fill="#650fee" d="M 379.5,337.5 C 381.877,343.58 382.877,349.913 382.5,356.5C 383.5,361.167 384.5,365.833 385.5,370.5C 380.489,370.666 375.489,370.499 370.5,370C 369.919,369.107 369.585,368.107 369.5,367C 372.681,357.084 374.514,346.918 375,336.5C 376.874,334.14 378.374,334.473 379.5,337.5 Z"/></g>
<g><path style="opacity:1" fill="#fbfafd" d="M 138.5,358.5 C 139.289,358.783 139.956,359.283 140.5,360C 153.162,360.5 165.829,360.667 178.5,360.5C 178.5,361.167 178.5,361.833 178.5,362.5C 178.777,365.448 178.444,368.281 177.5,371C 170.356,369.959 163.022,369.459 155.5,369.5C 149.921,369.511 144.421,369.844 139,370.5C 138.333,372.5 138.333,374.5 139,376.5C 143.101,381.276 147.267,386.11 151.5,391C 155.568,390.707 158.902,392.041 161.5,395C 162.793,395.49 164.127,395.657 165.5,395.5C 169.203,397.658 173.203,399.324 177.5,400.5C 179.395,402.867 179.895,405.534 179,408.5C 177.075,410.592 175.908,413.092 175.5,416C 172.833,416.667 170.167,416.667 167.5,416C 161.688,410.182 155.355,405.015 148.5,400.5C 147.569,396.571 145.236,393.905 141.5,392.5C 140.558,392.608 139.725,392.941 139,393.5C 139.148,404.162 139.148,414.829 139,425.5C 134.263,426.469 129.43,426.803 124.5,426.5C 124.5,424.5 124.5,422.5 124.5,420.5C 124.5,412.167 124.5,403.833 124.5,395.5C 121.918,395.025 119.918,395.692 118.5,397.5C 117.075,398.922 116.075,400.589 115.5,402.5C 112.856,404.628 109.856,406.128 106.5,407C 103.841,409.256 101.174,411.423 98.5,413.5C 94.6633,414.595 90.9967,415.928 87.5,417.5C 86.1737,414.318 85.6737,410.985 86,407.5C 88.6239,405.965 91.4572,404.798 94.5,404C 95.7101,402.961 96.7101,401.794 97.5,400.5C 104.532,396.811 110.532,391.811 115.5,385.5C 115.5,384.833 115.833,384.5 116.5,384.5C 116.833,384.5 117.167,384.5 117.5,384.5C 123.922,382.044 126.255,377.377 124.5,370.5C 114.157,370.816 103.824,370.982 93.5,371C 92.3832,367.927 92.2165,364.76 93,361.5C 102.756,360.68 112.59,360.18 122.5,360C 123.167,356 123.833,352 124.5,348C 128.997,347.271 133.33,347.771 137.5,349.5C 137.19,352.713 137.523,355.713 138.5,358.5 Z"/></g>
<g><path style="opacity:1" fill="#dbe3f0" d="M 134.5,346.5 C 135.287,348.104 136.62,348.771 138.5,348.5C 138.5,351.833 138.5,355.167 138.5,358.5C 137.523,355.713 137.19,352.713 137.5,349.5C 133.33,347.771 128.997,347.271 124.5,348C 123.833,352 123.167,356 122.5,360C 112.59,360.18 102.756,360.68 93,361.5C 92.2165,364.76 92.3832,367.927 93.5,371C 103.824,370.982 114.157,370.816 124.5,370.5C 126.255,377.377 123.922,382.044 117.5,384.5C 118.793,382.704 120.293,381.037 122,379.5C 123.776,373.189 121.442,370.522 115,371.5C 111.642,371.423 108.475,372.089 105.5,373.5C 101.087,375.463 96.4205,375.963 91.5,375C 89.7375,371.757 89.0708,368.257 89.5,364.5C 86.1386,366.461 82.472,367.961 78.5,369C 77.3333,370.167 76.1667,371.333 75,372.5C 74.6667,382.833 74.3333,393.167 74,403.5C 70.7827,408.964 69.6161,414.964 70.5,421.5C 70.5,422.167 70.1667,422.5 69.5,422.5C 65.1539,422.334 60.8206,422.501 56.5,423C 53.7766,426.881 50.6099,427.381 47,424.5C 46.3333,420.167 46.3333,415.833 47,411.5C 49.5074,409.845 52.3408,409.011 55.5,409C 56.3333,408.167 57.1667,407.333 58,406.5C 58.4998,397.173 58.6665,387.839 58.5,378.5C 54.1609,380.648 49.4943,381.648 44.5,381.5C 44.5,380.167 44.5,378.833 44.5,377.5C 45.5938,378.582 46.9271,379.248 48.5,379.5C 50.8892,377.941 53.3892,376.607 56,375.5C 58.1879,375.354 59.5212,376.354 60,378.5C 60.6667,388.167 60.6667,397.833 60,407.5C 59.5,409.333 58.3333,410.5 56.5,411C 53.5738,411.218 50.7405,411.718 48,412.5C 47.3333,415.5 47.3333,418.5 48,421.5C 55.0695,421.802 62.2361,421.802 69.5,421.5C 68.9885,415.601 69.6552,409.934 71.5,404.5C 70.3736,392.527 70.2069,380.527 71,368.5C 76.3375,366.659 81.5042,364.659 86.5,362.5C 86.7771,359.552 86.4438,356.719 85.5,354C 82.4818,353.501 79.4818,353.668 76.5,354.5C 75.0055,354.291 73.8388,353.624 73,352.5C 72.3333,346.167 72.3333,339.833 73,333.5C 75.9076,331.975 79.0743,330.975 82.5,330.5C 83.7485,327.506 83.7485,324.506 82.5,321.5C 79.6875,320.781 76.8541,320.114 74,319.5C 73.0546,319.095 72.3879,318.428 72,317.5C 71.3333,309.5 71.3333,301.5 72,293.5C 73.883,292.347 74.7163,290.681 74.5,288.5C 69.9014,288.2 65.4014,288.533 61,289.5C 60.761,299.866 60.261,310.199 59.5,320.5C 54.57,320.197 49.7367,320.531 45,321.5C 44.2228,324.429 44.3895,327.263 45.5,330C 49.8333,330.333 54.1667,330.667 58.5,331C 59,331.5 59.5,332 60,332.5C 60.8052,341.548 60.6386,350.548 59.5,359.5C 57.0383,360.794 54.7049,362.294 52.5,364C 49.854,364.497 47.1873,364.664 44.5,364.5C 44.5,367.5 44.5,370.5 44.5,373.5C 40.9978,369.897 40.9978,366.397 44.5,363C 49.5765,363.086 54.0765,361.586 58,358.5C 58.6667,349.833 58.6667,341.167 58,332.5C 53.5855,331.697 49.0855,331.197 44.5,331C 44,330.5 43.5,330 43,329.5C 42.3333,326.167 42.3333,322.833 43,319.5C 43.5,319 44,318.5 44.5,318C 49.0855,317.803 53.5855,317.303 58,316.5C 58.1679,306.816 58.6679,297.149 59.5,287.5C 64.6972,286.186 69.8639,286.186 75,287.5C 73.5168,296.977 73.1834,306.644 74,316.5C 74.5,317 75,317.5 75.5,318C 79.0894,318.207 82.5894,318.707 86,319.5C 86.6667,323.5 86.6667,327.5 86,331.5C 82.3333,332.167 78.6667,332.833 75,333.5C 74.5005,339.825 74.3338,346.158 74.5,352.5C 78.4923,351.662 82.4923,351.162 86.5,351C 88.3137,353.481 88.9804,356.315 88.5,359.5C 99.8023,358.59 111.136,358.257 122.5,358.5C 119.512,347.488 123.512,343.488 134.5,346.5 Z"/></g>
<g><path style="opacity:1" fill="#cad5e9" d="M 457.5,295.5 C 457.833,295.5 458.167,295.5 458.5,295.5C 458.5,306.833 458.5,318.167 458.5,329.5C 459.167,330.167 459.833,330.833 460.5,331.5C 461.649,359.124 461.816,386.791 461,414.5C 455.584,415.639 450.084,415.806 444.5,415C 444,414.5 443.5,414 443,413.5C 442.564,393.481 442.23,373.481 442,353.5C 444.519,351.789 446.019,349.455 446.5,346.5C 447.332,330.005 447.832,313.338 448,296.5C 451.057,295.549 454.223,295.216 457.5,295.5 Z"/></g>
<g><path style="opacity:1" fill="#fbfbfd" d="M 458.5,329.5 C 459.632,356.477 459.798,383.477 459,410.5C 454.934,411.464 450.767,411.797 446.5,411.5C 446.247,373.407 447.08,335.407 449,297.5C 451.719,296.556 454.552,296.223 457.5,296.5C 457.172,307.679 457.505,318.679 458.5,329.5 Z"/></g>
<g><path style="opacity:1" fill="#e6d7fc" d="M 393.5,337.5 C 394.167,340.5 394.833,343.5 395.5,346.5C 398.737,353.455 400.07,360.788 399.5,368.5C 397.732,364.956 396.898,360.956 397,356.5C 395.415,355.624 394.415,354.291 394,352.5C 393.501,347.511 393.334,342.511 393.5,337.5 Z"/></g>
<g><path style="opacity:1" fill="#9b85e5" d="M 444.5,346.5 C 444.833,346.5 445.167,346.5 445.5,346.5C 445.013,347.473 444.513,348.473 444,349.5C 436.063,357.445 427.563,364.612 418.5,371C 415.271,373.442 412.271,376.108 409.5,379C 407.527,379.495 405.527,379.662 403.5,379.5C 402.527,377.052 402.194,374.385 402.5,371.5C 404.074,373.102 404.741,375.102 404.5,377.5C 409.485,376.847 413.485,374.514 416.5,370.5C 422.995,367.679 428.328,363.346 432.5,357.5C 437.152,354.514 441.152,350.847 444.5,346.5 Z"/></g>
<g><path style="opacity:1" fill="#804ce7" d="M 432.5,357.5 C 428.328,363.346 422.995,367.679 416.5,370.5C 421.762,366.254 427.095,361.921 432.5,357.5 Z"/></g>
<g><path style="opacity:1" fill="#b3c5df" d="M 105.5,373.5 C 96.2284,382.27 87.0618,391.27 78,400.5C 76.5787,402.405 75.412,404.405 74.5,406.5C 74.5,406.833 74.5,407.167 74.5,407.5C 73.8826,407.611 73.3826,407.944 73,408.5C 72.6667,412.167 72.3333,415.833 72,419.5C 71.7216,420.416 71.2216,421.082 70.5,421.5C 69.6161,414.964 70.7827,408.964 74,403.5C 74.3333,393.167 74.6667,382.833 75,372.5C 76.1667,371.333 77.3333,370.167 78.5,369C 82.472,367.961 86.1386,366.461 89.5,364.5C 89.0708,368.257 89.7375,371.757 91.5,375C 96.4205,375.963 101.087,375.463 105.5,373.5 Z"/></g>
<g><path style="opacity:1" fill="#e8e0fa" d="M 178.5,362.5 C 179.404,363.209 179.737,364.209 179.5,365.5C 179.768,368.119 179.435,370.619 178.5,373C 175.319,373.597 172.319,373.097 169.5,371.5C 160.494,371.334 151.494,371.5 142.5,372C 141.457,374.373 141.79,376.54 143.5,378.5C 144.419,381.089 146.086,383.089 148.5,384.5C 149.5,385.833 150.5,387.167 151.5,388.5C 151.5,389.167 151.833,389.5 152.5,389.5C 154.631,390.314 156.964,390.814 159.5,391C 161.141,393.163 163.141,394.663 165.5,395.5C 164.127,395.657 162.793,395.49 161.5,395C 158.902,392.041 155.568,390.707 151.5,391C 147.267,386.11 143.101,381.276 139,376.5C 138.333,374.5 138.333,372.5 139,370.5C 144.421,369.844 149.921,369.511 155.5,369.5C 163.022,369.459 170.356,369.959 177.5,371C 178.444,368.281 178.777,365.448 178.5,362.5 Z"/></g>
<g><path style="opacity:1" fill="#a29fe1" d="M 178.5,360.5 C 180.262,362.7 182.596,363.867 185.5,364C 187.041,365.371 188.375,366.871 189.5,368.5C 194.802,371.809 199.802,375.476 204.5,379.5C 202.407,378.955 200.407,378.122 198.5,377C 192.728,372.119 186.394,368.286 179.5,365.5C 179.737,364.209 179.404,363.209 178.5,362.5C 178.5,361.833 178.5,361.167 178.5,360.5 Z"/></g>
<g><path style="opacity:1" fill="#8d6ce4" d="M 189.5,368.5 C 191.655,368.372 193.655,368.872 195.5,370C 198.896,373.601 202.562,376.767 206.5,379.5C 205.833,379.5 205.167,379.5 204.5,379.5C 199.802,375.476 194.802,371.809 189.5,368.5 Z"/></g>
<g><path style="opacity:1" fill="#e7d9fc" d="M 356.5,348.5 C 356.833,348.5 357.167,348.5 357.5,348.5C 357.666,354.509 357.499,360.509 357,366.5C 356.311,367.357 355.478,368.023 354.5,368.5C 353.672,373.132 353.172,377.798 353,382.5C 352.527,384.779 351.527,386.779 350,388.5C 349.821,392.025 349.321,395.359 348.5,398.5C 348.335,394.818 348.501,391.152 349,387.5C 351.042,380.341 352.542,373.008 353.5,365.5C 354.222,365.082 354.722,364.416 355,363.5C 355.219,358.418 355.719,353.418 356.5,348.5 Z"/></g>
<g><path style="opacity:1" fill="#7c32ef" d="M 339.5,402.5 C 335.833,403.167 332.167,403.833 328.5,404.5C 325.167,404.5 321.833,404.5 318.5,404.5C 318.5,403.167 318.5,401.833 318.5,400.5C 321.889,398.113 324.555,395.113 326.5,391.5C 324.222,387.885 321.555,384.552 318.5,381.5C 317.448,379.744 315.781,379.077 313.5,379.5C 313.414,378.504 313.748,377.671 314.5,377C 316.473,376.505 318.473,376.338 320.5,376.5C 320.106,379.857 321.439,382.19 324.5,383.5C 325.692,386.487 327.025,389.321 328.5,392C 328.333,393.167 328.167,394.333 328,395.5C 324.777,396.552 322.277,398.552 320.5,401.5C 326.798,402.496 333.132,402.83 339.5,402.5 Z"/></g>
<g><path style="opacity:1" fill="#b0a4e8" d="M 169.5,371.5 C 171.435,376.963 169.602,380.63 164,382.5C 162.634,384.37 161.467,386.37 160.5,388.5C 157.914,389.48 155.247,389.813 152.5,389.5C 151.833,389.5 151.5,389.167 151.5,388.5C 153.199,388.66 154.866,388.494 156.5,388C 157.551,386.615 158.884,385.615 160.5,385C 163.685,382.076 166.352,378.743 168.5,375C 168.095,374.055 167.428,373.388 166.5,373C 158.841,372.5 151.174,372.334 143.5,372.5C 143.5,374.5 143.5,376.5 143.5,378.5C 141.79,376.54 141.457,374.373 142.5,372C 151.494,371.5 160.494,371.334 169.5,371.5 Z"/></g>
<g><path style="opacity:1" fill="#9c6dee" d="M 151.5,388.5 C 150.5,387.167 149.5,385.833 148.5,384.5C 146.086,383.089 144.419,381.089 143.5,378.5C 143.5,376.5 143.5,374.5 143.5,372.5C 151.174,372.334 158.841,372.5 166.5,373C 167.428,373.388 168.095,374.055 168.5,375C 166.352,378.743 163.685,382.076 160.5,385C 158.884,385.615 157.551,386.615 156.5,388C 154.866,388.494 153.199,388.66 151.5,388.5 Z"/></g>
<g><path style="opacity:1" fill="#6e1fee" d="M 148.5,384.5 C 147.969,382.456 146.802,380.789 145,379.5C 144.506,377.866 144.34,376.199 144.5,374.5C 151.5,374.5 158.5,374.5 165.5,374.5C 165.657,375.873 165.49,377.207 165,378.5C 161.428,380.197 158.595,382.697 156.5,386C 153.562,386.712 150.896,386.212 148.5,384.5 Z"/></g>
<g><path style="opacity:1" fill="#aa95e9" d="M 117.5,384.5 C 117.167,384.5 116.833,384.5 116.5,384.5C 117.412,382.405 118.579,380.405 120,378.5C 120.494,376.866 120.66,375.199 120.5,373.5C 115.733,373.191 111.066,373.691 106.5,375C 96.2736,383.726 86.9402,393.226 78.5,403.5C 77.1667,404.5 75.8333,405.5 74.5,406.5C 75.412,404.405 76.5787,402.405 78,400.5C 87.0618,391.27 96.2284,382.27 105.5,373.5C 108.475,372.089 111.642,371.423 115,371.5C 121.442,370.522 123.776,373.189 122,379.5C 120.293,381.037 118.793,382.704 117.5,384.5 Z"/></g>
<g><path style="opacity:1" fill="#9889e2" d="M 206.5,379.5 C 209.868,379.655 212.535,380.988 214.5,383.5C 211.101,383.391 208.434,382.058 206.5,379.5 Z"/></g>
<g><path style="opacity:1" fill="#be96f7" d="M 318.5,381.5 C 321.555,384.552 324.222,387.885 326.5,391.5C 324.555,395.113 321.889,398.113 318.5,400.5C 319.754,397.907 321.42,395.573 323.5,393.5C 324.598,392.399 324.765,391.066 324,389.5C 322.167,387.667 320.333,385.833 318.5,384C 315.225,383.018 312.559,383.851 310.5,386.5C 311.587,382.427 314.254,380.761 318.5,381.5 Z"/></g>
<g><path style="opacity:1" fill="#d3c2f6" d="M 385.5,387.5 C 384.167,387.5 382.833,387.5 381.5,387.5C 375.824,387.334 370.157,387.501 364.5,388C 363.944,388.383 363.611,388.883 363.5,389.5C 361.079,395.3 363.079,397.967 369.5,397.5C 369.389,398.117 369.056,398.617 368.5,399C 366.19,399.497 363.857,399.663 361.5,399.5C 361.5,398.167 361.5,396.833 361.5,395.5C 360.814,391.713 361.814,388.546 364.5,386C 371.167,385.333 377.833,385.333 384.5,386C 385.056,386.383 385.389,386.883 385.5,387.5 Z"/></g>
<g><path style="opacity:1" fill="#965cf1" d="M 381.5,387.5 C 382.234,388.708 382.567,390.041 382.5,391.5C 381.5,391.5 380.5,391.5 379.5,391.5C 379.5,390.5 379.5,389.5 379.5,388.5C 374.821,388.334 370.155,388.501 365.5,389C 364.594,390.699 364.261,392.533 364.5,394.5C 363.549,393.081 363.216,391.415 363.5,389.5C 363.611,388.883 363.944,388.383 364.5,388C 370.157,387.501 375.824,387.334 381.5,387.5 Z"/></g>
<g><path style="opacity:1" fill="#b48cf3" d="M 353.5,365.5 C 352.542,373.008 351.042,380.341 349,387.5C 348.501,391.152 348.335,394.818 348.5,398.5C 343.085,404.077 336.419,406.077 328.5,404.5C 332.167,403.833 335.833,403.167 339.5,402.5C 342.315,401.676 344.482,400.009 346,397.5C 347.208,389.356 348.708,381.356 350.5,373.5C 350.298,371.05 350.631,368.717 351.5,366.5C 352.167,366.167 352.833,365.833 353.5,365.5 Z"/></g>
<g><path style="opacity:1" fill="#6923ec" d="M 379.5,391.5 C 375.644,391.838 372.311,393.338 369.5,396C 368.667,396.167 367.833,396.333 367,396.5C 365.624,396.316 364.791,395.649 364.5,394.5C 364.261,392.533 364.594,390.699 365.5,389C 370.155,388.501 374.821,388.334 379.5,388.5C 379.5,389.5 379.5,390.5 379.5,391.5 Z"/></g>
<g><path style="opacity:1" fill="#833bf0" d="M 350.5,373.5 C 348.708,381.356 347.208,389.356 346,397.5C 344.482,400.009 342.315,401.676 339.5,402.5C 340.508,400.661 342.008,399.328 344,398.5C 345.121,391.155 346.287,383.822 347.5,376.5C 348.288,375.23 349.288,374.23 350.5,373.5 Z"/></g>
<g><path style="opacity:1" fill="#8f59ed" d="M 116.5,384.5 C 115.833,384.5 115.5,384.833 115.5,385.5C 111.501,388.807 107.168,391.807 102.5,394.5C 100.551,396.297 98.8842,398.297 97.5,400.5C 93.7891,402.313 89.7891,403.48 85.5,404C 83.161,406.887 82.8276,410.054 84.5,413.5C 81.6676,411.593 80.8343,408.927 82,405.5C 90.7939,400.893 99.2939,395.726 107.5,390C 111,386.5 114.5,383 118,379.5C 118.49,378.207 118.657,376.873 118.5,375.5C 114.818,375.335 111.152,375.501 107.5,376C 97.6617,385.006 87.995,394.172 78.5,403.5C 86.9402,393.226 96.2736,383.726 106.5,375C 111.066,373.691 115.733,373.191 120.5,373.5C 120.66,375.199 120.494,376.866 120,378.5C 118.579,380.405 117.412,382.405 116.5,384.5 Z"/></g>
<g><path style="opacity:1" fill="#d6bcfa" d="M 309.5,387.5 C 307.055,390.21 304.722,393.044 302.5,396C 298.996,397.254 295.663,398.754 292.5,400.5C 297.877,395.79 303.543,391.457 309.5,387.5 Z"/></g>
<g><path style="opacity:1" fill="#dcc6fb" d="M 115.5,385.5 C 110.532,391.811 104.532,396.811 97.5,400.5C 98.8842,398.297 100.551,396.297 102.5,394.5C 107.168,391.807 111.501,388.807 115.5,385.5 Z"/></g>
<g><path style="opacity:1" fill="#a08ee5" d="M 381.5,387.5 C 382.833,387.5 384.167,387.5 385.5,387.5C 386.301,389.042 386.634,390.708 386.5,392.5C 382.51,392.999 378.51,393.499 374.5,394C 373.511,396.158 371.844,397.325 369.5,397.5C 363.079,397.967 361.079,395.3 363.5,389.5C 363.216,391.415 363.549,393.081 364.5,394.5C 364.791,395.649 365.624,396.316 367,396.5C 367.833,396.333 368.667,396.167 369.5,396C 372.311,393.338 375.644,391.838 379.5,391.5C 380.5,391.5 381.5,391.5 382.5,391.5C 382.567,390.041 382.234,388.708 381.5,387.5 Z"/></g>
<g><path style="opacity:1" fill="#905feb" d="M 139.5,394.5 C 145.661,394.943 146.995,397.777 143.5,403C 142.216,403.684 141.049,403.517 140,402.5C 139.503,399.854 139.336,397.187 139.5,394.5 Z"/></g>
<g><path style="opacity:1" fill="#a472f2" d="M 313.5,379.5 C 315.781,379.077 317.448,379.744 318.5,381.5C 314.254,380.761 311.587,382.427 310.5,386.5C 309.833,386.5 309.5,386.833 309.5,387.5C 303.543,391.457 297.877,395.79 292.5,400.5C 284.274,404.229 275.608,405.396 266.5,404C 263.15,401.463 259.484,399.963 255.5,399.5C 262.162,400.496 268.829,401.496 275.5,402.5C 279.256,402.537 282.922,402.037 286.5,401C 296.889,395.429 305.889,388.263 313.5,379.5 Z"/></g>
<g><path style="opacity:1" fill="#ccadf9" d="M 124.5,420.5 C 124.167,420.5 123.833,420.5 123.5,420.5C 123.5,412.5 123.5,404.5 123.5,396.5C 121.708,396.366 120.042,396.699 118.5,397.5C 119.918,395.692 121.918,395.025 124.5,395.5C 124.5,403.833 124.5,412.167 124.5,420.5 Z"/></g>
<g><path style="opacity:1" fill="#d4c9f4" d="M 246.5,333.5 C 246.17,354.007 246.503,374.34 247.5,394.5C 248.167,394.833 248.833,395.167 249.5,395.5C 250.853,397.738 252.853,399.071 255.5,399.5C 259.484,399.963 263.15,401.463 266.5,404C 275.608,405.396 284.274,404.229 292.5,400.5C 291.327,402.504 289.66,404.004 287.5,405C 272.54,407.705 258.707,405.205 246,397.5C 245.171,375.996 245.337,354.663 246.5,333.5 Z"/></g>
<g><path style="opacity:1" fill="#640aed" d="M 84.5,413.5 C 85.8571,414.59 86.8571,415.924 87.5,417.5C 88.2039,419.344 89.5372,419.844 91.5,419C 98.2224,416.089 104.556,412.589 110.5,408.5C 114.084,406.261 117.417,403.594 120.5,400.5C 121.664,406.807 121.831,413.141 121,419.5C 110.332,431.001 99.4988,442.334 88.5,453.5C 81.9366,455.796 75.2699,455.962 68.5,454C 65.2975,450.629 61.9641,447.462 58.5,444.5C 57.4409,439.552 57.2742,434.552 58,429.5C 62.218,427.894 66.3847,426.228 70.5,424.5C 74.0919,419.468 75.4252,413.801 74.5,407.5C 74.5,407.167 74.5,406.833 74.5,406.5C 75.8333,405.5 77.1667,404.5 78.5,403.5C 87.995,394.172 97.6617,385.006 107.5,376C 111.152,375.501 114.818,375.335 118.5,375.5C 118.657,376.873 118.49,378.207 118,379.5C 114.5,383 111,386.5 107.5,390C 99.2939,395.726 90.7939,400.893 82,405.5C 80.8343,408.927 81.6676,411.593 84.5,413.5 Z"/></g>
<g><path style="opacity:1" fill="#9d88e5" d="M 318.5,400.5 C 318.5,401.833 318.5,403.167 318.5,404.5C 321.833,404.5 325.167,404.5 328.5,404.5C 328.389,405.117 328.056,405.617 327.5,406C 322.863,406.829 318.196,407.329 313.5,407.5C 313.969,404.357 315.636,402.023 318.5,400.5 Z"/></g>
<g><path style="opacity:1" fill="#dcc6fb" d="M 97.5,400.5 C 96.7101,401.794 95.7101,402.961 94.5,404C 91.4572,404.798 88.6239,405.965 86,407.5C 85.6737,410.985 86.1737,414.318 87.5,417.5C 86.8571,415.924 85.8571,414.59 84.5,413.5C 82.8276,410.054 83.161,406.887 85.5,404C 89.7891,403.48 93.7891,402.313 97.5,400.5 Z"/></g>
<g><path style="opacity:1" fill="#ba8df7" d="M 115.5,402.5 C 113.833,404.5 112.167,406.5 110.5,408.5C 104.556,412.589 98.2224,416.089 91.5,419C 89.5372,419.844 88.2039,419.344 87.5,417.5C 90.9967,415.928 94.6633,414.595 98.5,413.5C 101.174,411.423 103.841,409.256 106.5,407C 109.856,406.128 112.856,404.628 115.5,402.5 Z"/></g>
<g><path style="opacity:1" fill="#ae7cf5" d="M 74.5,407.5 C 75.4252,413.801 74.0919,419.468 70.5,424.5C 69.1667,424.5 67.8333,424.5 66.5,424.5C 66.5,424.167 66.5,423.833 66.5,423.5C 67.791,423.737 68.791,423.404 69.5,422.5C 70.1667,422.5 70.5,422.167 70.5,421.5C 71.2216,421.082 71.7216,420.416 72,419.5C 72.3333,415.833 72.6667,412.167 73,408.5C 73.3826,407.944 73.8826,407.611 74.5,407.5 Z"/></g>
<g><path style="opacity:1" fill="#874feb" d="M 66.5,424.5 C 67.8333,424.5 69.1667,424.5 70.5,424.5C 66.3847,426.228 62.218,427.894 58,429.5C 57.2742,434.552 57.4409,439.552 58.5,444.5C 57.2101,443.942 56.3768,442.942 56,441.5C 52.6103,431.124 56.1103,425.457 66.5,424.5 Z"/></g>
<g><path style="opacity:1" fill="#a29fe0" d="M 123.5,422.5 C 113.062,434.44 102.062,445.94 90.5,457C 78.4819,461.858 67.9819,459.691 59,450.5C 58.51,449.207 58.3433,447.873 58.5,446.5C 61.9641,449.462 65.2975,452.629 68.5,456C 76.48,457.25 84.1467,456.417 91.5,453.5C 102.167,443.167 112.833,432.833 123.5,422.5 Z"/></g>
<g><path style="opacity:1" fill="#8148e9" d="M 91.5,453.5 C 84.1467,456.417 76.48,457.25 68.5,456C 65.2975,452.629 61.9641,449.462 58.5,446.5C 58.5,445.833 58.5,445.167 58.5,444.5C 61.9641,447.462 65.2975,450.629 68.5,454C 75.2699,455.962 81.9366,455.796 88.5,453.5C 99.4988,442.334 110.332,431.001 121,419.5C 121.831,413.141 121.664,406.807 120.5,400.5C 117.417,403.594 114.084,406.261 110.5,408.5C 112.167,406.5 113.833,404.5 115.5,402.5C 117.481,400.856 119.481,399.19 121.5,397.5C 122.665,405.145 122.831,412.812 122,420.5C 111.606,431.39 101.439,442.39 91.5,453.5 Z"/></g>
<g><path style="opacity:1" fill="#9877e8" d="M 123.5,420.5 C 123.5,421.167 123.5,421.833 123.5,422.5C 112.833,432.833 102.167,443.167 91.5,453.5C 101.439,442.39 111.606,431.39 122,420.5C 122.831,412.812 122.665,405.145 121.5,397.5C 119.481,399.19 117.481,400.856 115.5,402.5C 116.075,400.589 117.075,398.922 118.5,397.5C 120.042,396.699 121.708,396.366 123.5,396.5C 123.5,404.5 123.5,412.5 123.5,420.5 Z"/></g>
<g><path style="opacity:1" fill="#a293e5" d="M 66.5,423.5 C 66.5,423.833 66.5,424.167 66.5,424.5C 56.1103,425.457 52.6103,431.124 56,441.5C 56.3768,442.942 57.2101,443.942 58.5,444.5C 58.5,445.167 58.5,445.833 58.5,446.5C 57.2794,445.972 56.1127,445.305 55,444.5C 50.8337,436.892 51.667,430.059 57.5,424C 60.4816,423.502 63.4816,423.335 66.5,423.5 Z"/></g>
</svg>
